<?xml version="1.0" standalone="no"?>
<!DOCTYPE svg PUBLIC "-//W3C//DTD SVG 20010904//EN"
 "http://www.w3.org/TR/2001/REC-SVG-20010904/DTD/svg10.dtd">
<svg version="1.0" xmlns="http://www.w3.org/2000/svg"
 width="1252.000000pt" height="942.000000pt" viewBox="0 0 1252.000000 942.000000"
 preserveAspectRatio="xMidYMid meet">

<g transform="translate(0.000000,942.000000) scale(0.100000,-0.100000)"
fill="#000000" stroke="none">
<path d="M6120 8360 c-11 -7 -10 -11 3 -25 22 -21 21 -13 22 -259 0 -158 3
-210 13 -213 9 -4 12 15 12 72 0 84 11 115 40 115 11 0 20 7 20 15 0 19 4 19
42 -1 22 -11 33 -13 41 -5 6 6 23 11 39 11 43 0 74 19 97 60 26 47 28 120 4
162 -32 53 -66 65 -198 71 -67 3 -127 2 -135 -3z m248 -36 c34 -20 72 -78 72
-110 0 -41 -48 -102 -89 -114 -46 -13 -112 -13 -145 0 -26 9 -26 11 -26 114 0
89 3 107 18 115 28 17 140 13 170 -5z"/>
<path d="M5806 8329 c-9 -18 -21 -62 -27 -98 -6 -36 -15 -71 -20 -77 -14 -18
-23 -101 -11 -108 6 -4 13 14 17 46 4 28 14 58 21 66 8 7 14 23 14 36 0 12 6
30 13 41 13 17 15 17 30 -6 10 -13 17 -32 17 -42 0 -11 4 -15 11 -11 15 9 6
148 -11 169 -19 23 -37 18 -54 -16z"/>
<path d="M6594 8326 c-6 -27 2 -49 16 -41 5 3 19 19 30 35 l21 30 -30 0 c-24
0 -32 -5 -37 -24z"/>
<path d="M6695 8322 c-14 -4 -4 -9 30 -16 l50 -11 5 -115 c4 -99 6 -108 13
-66 4 27 7 66 7 87 0 29 7 44 27 64 27 24 73 35 73 16 0 -5 17 -11 39 -15 21
-3 44 -13 51 -21 7 -8 16 -15 20 -15 13 0 19 51 6 54 -118 31 -275 49 -321 38z"/>
<path d="M5436 8287 c-15 -11 -16 -19 -7 -57 6 -25 13 -127 15 -228 3 -175 3
-183 -17 -197 -18 -12 -18 -15 -4 -20 9 -4 24 -5 34 -3 18 3 18 8 9 358 -1 46
31 54 56 13 30 -48 42 -66 61 -85 9 -10 17 -22 17 -28 0 -5 5 -10 11 -10 15 0
3 48 -16 67 -8 8 -15 21 -15 29 0 8 -5 14 -10 14 -6 0 -14 10 -19 23 -11 28
-66 110 -84 125 -10 9 -18 8 -31 -1z"/>
<path d="M7277 8194 c-3 -3 -24 -10 -47 -15 -50 -11 -108 -63 -138 -123 -18
-35 -22 -61 -22 -132 0 -59 5 -97 15 -114 8 -14 17 -31 21 -39 14 -26 52 -61
67 -61 9 0 23 -7 32 -17 21 -21 107 -35 165 -27 63 9 170 74 170 103 0 5 7 14
15 21 8 7 17 28 21 49 4 20 11 44 16 54 7 13 4 43 -7 94 -18 79 -22 87 -66
132 -44 43 -56 50 -98 57 -23 4 -41 10 -41 15 0 10 -93 12 -103 3z m98 -23 c3
-5 20 -12 38 -16 41 -9 132 -103 141 -146 21 -104 -7 -199 -74 -254 -14 -11
-34 -29 -44 -39 -17 -17 -34 -20 -115 -19 -95 0 -97 1 -135 34 -21 19 -50 52
-65 74 -23 35 -26 50 -26 122 0 63 4 86 18 100 9 11 17 24 17 29 0 19 95 94
127 100 18 3 33 10 33 15 0 12 77 12 85 0z"/>
<path d="M4923 8174 c-13 -3 -23 -10 -23 -15 0 -5 -7 -9 -15 -9 -23 0 -95 -69
-101 -99 -4 -14 -14 -34 -22 -44 -26 -30 -28 -120 -3 -167 11 -22 21 -47 21
-56 0 -24 78 -93 139 -122 59 -28 156 -37 169 -15 4 6 23 18 42 27 67 32 90
47 90 60 0 8 6 16 14 19 8 3 17 19 21 36 4 17 11 33 16 36 12 8 12 162 0 169
-5 3 -12 18 -16 33 -8 34 -71 113 -90 113 -7 0 -21 7 -30 16 -12 12 -39 17
-103 20 -48 1 -97 0 -109 -2z m192 -45 c45 -36 105 -99 105 -111 1 -7 9 -31
20 -53 11 -22 19 -52 20 -67 0 -32 -39 -109 -81 -159 -42 -50 -120 -68 -217
-50 -60 11 -71 17 -110 59 -24 26 -46 59 -49 75 -3 15 -9 27 -14 27 -5 0 -9
28 -9 63 0 77 24 132 77 175 21 18 46 38 55 46 31 27 167 24 203 -5z"/>
<path d="M5891 8113 c0 -16 4 -50 9 -78 7 -48 7 -48 9 28 0 45 -3 77 -9 77 -5
0 -10 -12 -9 -27z"/>
<path d="M6741 7955 c-6 -49 -16 -98 -21 -107 -14 -26 -12 -30 13 -26 20 3 22
10 28 83 3 44 2 94 -1 110 -5 23 -9 10 -19 -60z"/>
<path d="M5707 8003 c-21 -40 -29 -41 -47 -8 -16 30 -30 32 -30 4 0 -29 38
-79 59 -79 29 0 42 25 39 72 l-3 43 -18 -32z"/>
<path d="M7816 7978 c3 -28 0 -52 -10 -68 -25 -42 -64 -124 -71 -150 -4 -14
-14 -34 -21 -45 -8 -11 -14 -28 -14 -38 0 -9 -6 -20 -14 -23 -8 -3 -18 -19
-21 -35 -5 -20 -14 -31 -31 -35 -38 -10 -32 -46 11 -66 19 -9 37 -13 40 -9 2
4 4 31 3 60 0 34 6 58 16 70 9 10 16 26 16 37 0 11 9 27 20 37 11 9 20 26 20
37 0 11 7 23 15 26 8 4 15 11 15 17 0 6 9 29 19 51 11 23 25 53 30 69 6 15 22
32 36 39 14 6 25 16 25 22 0 10 -66 46 -83 46 -4 0 -4 -19 -1 -42z"/>
<path d="M5927 7974 c-8 -9 -9 -60 -1 -91 6 -22 44 -35 65 -22 10 6 7 12 -9
26 -12 10 -28 35 -35 56 -7 21 -16 35 -20 31z"/>
<path d="M4420 7953 c-14 -3 -32 -10 -40 -17 -8 -6 -26 -18 -40 -25 -35 -17
-62 -41 -88 -78 -19 -28 -22 -43 -22 -141 0 -85 3 -112 15 -122 8 -7 15 -19
15 -28 0 -17 77 -92 95 -92 7 0 18 -7 25 -15 10 -11 36 -15 111 -15 55 0 99 4
99 9 0 5 11 12 25 15 24 6 44 24 95 85 20 24 29 88 10 76 -5 -3 -10 -13 -10
-22 0 -19 -72 -92 -121 -121 -48 -29 -130 -30 -182 -2 -48 26 -111 89 -137
137 -22 41 -28 142 -11 186 13 34 90 106 121 114 14 3 28 11 32 16 9 14 95 12
113 -3 8 -6 23 -10 34 -8 19 3 19 3 0 27 -20 25 -83 36 -139 24z"/>
<path d="M8065 7870 c-4 -12 -4 -24 -1 -27 7 -7 -68 -147 -103 -192 -32 -41
-81 -130 -81 -147 0 -6 -7 -17 -15 -24 -17 -14 -21 -60 -5 -60 6 0 10 8 10 18
0 10 7 27 15 37 8 11 28 37 45 59 16 21 30 43 30 47 0 5 10 9 23 9 37 0 49 13
33 35 -15 20 -4 65 24 96 8 9 28 35 43 58 22 32 35 41 57 41 16 0 33 -6 37
-13 4 -8 15 -18 24 -23 9 -5 33 -22 53 -38 30 -25 36 -36 36 -69 0 -42 -23
-80 -68 -109 -35 -23 -77 -22 -127 2 -45 22 -65 25 -65 10 0 -5 5 -10 10 -10
6 0 22 -12 35 -26 21 -23 25 -37 25 -93 0 -36 -4 -81 -10 -100 -7 -25 -6 -40
6 -63 16 -32 41 -33 36 -2 -5 31 -2 157 4 192 5 24 13 33 30 37 13 3 35 7 49
10 13 3 40 21 59 40 39 39 55 101 37 148 -13 34 -75 97 -95 97 -8 0 -16 7 -20
15 -3 8 -12 15 -19 15 -8 0 -25 8 -38 19 -40 31 -66 35 -74 11z"/>
<path d="M8485 7548 c-11 -6 -25 -19 -32 -27 -15 -19 -17 -149 -3 -171 7 -10
10 7 10 57 0 80 15 106 69 116 76 16 155 -56 144 -131 -5 -30 -4 -32 18 -24
32 12 37 56 10 93 -12 16 -21 33 -21 39 0 5 -7 10 -15 10 -9 0 -18 7 -21 15
-12 29 -120 45 -159 23z"/>
<path d="M3750 7495 c-7 -8 -21 -15 -31 -15 -24 0 -79 -54 -79 -77 1 -17 1
-17 14 0 7 9 17 17 21 17 4 0 14 8 21 18 10 13 26 17 78 16 36 -1 66 1 66 5
-1 12 -48 51 -63 51 -8 0 -20 -7 -27 -15z"/>
<path d="M3610 7329 c0 -16 4 -28 9 -25 8 5 3 56 -5 56 -2 0 -4 -14 -4 -31z"/>
<path d="M8474 7298 c4 -24 11 -47 17 -52 15 -16 10 -79 -9 -102 -27 -35 -60
-47 -106 -39 -48 7 -90 40 -100 78 -7 28 -35 67 -48 67 -15 0 -8 -32 14 -69
30 -51 82 -96 128 -111 34 -11 45 -11 85 4 25 10 45 24 45 32 0 8 6 14 14 14
28 0 36 98 11 140 -8 14 -19 37 -26 53 -17 43 -33 33 -25 -15z"/>
<path d="M3634 7278 c3 -13 6 -26 6 -29 0 -4 19 -14 41 -23 38 -16 47 -16 123
0 44 9 85 20 91 25 27 27 127 -19 145 -67 17 -43 11 -63 -30 -108 -30 -33 -50
-45 -80 -50 -57 -9 -52 -30 5 -24 47 6 106 43 125 78 14 27 15 122 1 148 -16
31 -74 62 -115 62 -20 0 -73 -9 -117 -21 -90 -23 -136 -20 -164 11 -24 27 -39
25 -31 -2z"/>
<path d="M3400 7195 c-33 -35 -26 -45 28 -38 57 7 52 4 46 30 -8 30 -49 35
-74 8z"/>
<path d="M3299 7081 c-87 -90 -93 -111 -27 -111 11 0 49 -28 87 -64 148 -144
243 -226 260 -226 22 0 93 66 137 125 16 22 35 44 41 48 7 4 13 21 13 37 0 24
-4 30 -20 30 -18 0 -20 -4 -15 -34 5 -25 3 -35 -9 -39 -9 -4 -16 -13 -16 -22
0 -8 -6 -15 -14 -15 -8 0 -30 -18 -49 -40 -47 -55 -71 -53 -140 13 -60 56 -79
93 -53 103 9 3 16 11 16 16 0 6 16 25 35 44 19 18 35 41 35 51 0 13 -18 -1
-60 -44 -33 -35 -68 -63 -78 -63 -19 0 -142 112 -142 130 0 13 29 58 53 82 17
18 23 39 10 37 -5 0 -33 -26 -64 -58z"/>
<path d="M9054 7078 c-11 -20 -57 -66 -104 -103 -47 -38 -103 -84 -126 -104
-22 -20 -59 -51 -82 -70 -48 -39 -49 -44 -23 -70 10 -10 21 -25 24 -32 3 -8 6
3 6 24 1 38 33 79 90 117 43 28 96 72 104 86 4 8 12 14 18 14 5 0 22 12 37 28
66 66 107 74 138 26 9 -13 23 -24 30 -24 8 0 14 -7 14 -15 0 -9 6 -18 14 -21
8 -3 17 -22 21 -42 4 -20 11 -42 15 -47 5 -6 3 -39 -4 -75 -13 -60 -18 -68
-81 -127 -36 -35 -73 -63 -82 -63 -8 0 -13 -6 -10 -12 6 -20 57 -9 97 19 38
28 90 95 90 116 0 7 7 22 15 33 20 26 20 103 0 110 -8 4 -15 18 -15 34 0 15
-9 37 -20 50 -11 12 -22 30 -25 40 -3 10 -12 21 -20 24 -8 3 -15 10 -15 15 0
6 -20 32 -44 57 l-44 48 -18 -36z"/>
<path d="M5178 6796 c-20 -10 -23 -19 -23 -71 1 -72 33 -130 94 -170 70 -47
173 -47 185 0 13 51 -5 104 -52 156 -67 75 -153 110 -204 85z"/>
<path d="M5565 6728 c-38 -45 -75 -118 -75 -149 0 -60 93 -190 123 -172 7 3
25 15 40 26 16 10 31 16 35 12 4 -4 7 -34 7 -68 0 -62 34 -157 55 -157 6 0 10
-7 10 -15 0 -20 63 -20 80 0 7 9 25 25 40 35 l28 20 -6 -65 c-5 -69 11 -147
34 -166 30 -25 2 -25 -48 0 -45 22 -64 26 -128 23 l-74 -2 38 39 c31 31 37 44
34 71 -3 29 -11 37 -57 62 -36 19 -75 31 -117 35 -66 6 -89 19 -61 34 9 5 22
22 30 37 12 25 12 31 -2 48 -25 30 -72 60 -122 76 -42 15 -50 14 -96 -2 -78
-27 -143 -75 -143 -105 0 -19 46 -62 93 -86 40 -21 92 -26 167 -17 25 3 35 4
23 1 -14 -3 -23 -12 -23 -23 0 -11 -8 -24 -19 -29 -10 -6 -22 -23 -26 -38 -6
-24 -1 -33 38 -69 57 -51 112 -69 166 -53 22 6 47 9 56 5 14 -5 9 -13 -24 -45
-23 -22 -41 -43 -41 -48 0 -18 50 -76 80 -94 45 -28 141 -26 189 3 66 41 104
98 86 129 -6 8 1 10 25 7 28 -4 38 1 72 36 22 22 48 57 59 78 23 45 25 120 4
138 -8 7 -15 18 -15 24 -1 12 -32 48 -67 79 -24 21 -30 18 -75 -30 -38 -41
-48 -30 -48 52 0 52 -5 85 -17 108 -38 69 -85 95 -113 62 -7 -8 -21 -15 -31
-15 -16 0 -19 8 -19 55 0 36 -7 68 -21 94 -20 39 -81 101 -99 101 -4 0 -25
-19 -45 -42z"/>
<path d="M6727 6603 c-92 -93 -175 -181 -184 -198 -12 -21 -19 -66 -23 -150
-8 -153 -17 -170 -159 -310 -61 -60 -111 -116 -111 -125 0 -13 49 -60 63 -60
2 0 44 46 93 103 49 56 98 110 109 119 41 34 127 56 235 60 l105 3 55 42 c30
23 118 105 194 182 118 119 139 145 139 171 0 34 0 35 -31 45 -21 6 -42 -11
-162 -131 -77 -76 -151 -144 -166 -152 -26 -14 -29 -13 -51 13 -22 25 -23 29
-8 51 8 13 71 80 140 149 69 69 127 136 131 150 10 40 1 60 -29 63 -28 3 -83
-44 -255 -220 -50 -52 -73 -68 -94 -68 -28 0 -48 23 -48 54 0 9 63 80 139 157
77 78 141 149 144 158 2 9 0 27 -4 39 -18 48 -48 29 -222 -145z"/>
<path d="M8770 6669 c0 -11 7 -22 15 -25 8 -4 15 -12 15 -19 0 -19 61 -65 87
-65 27 0 31 16 5 24 -10 3 -41 28 -70 56 -42 40 -52 46 -52 29z"/>
<path d="M2962 6647 c-33 -35 -28 -46 18 -40 33 5 46 1 77 -23 21 -16 52 -37
69 -46 18 -9 44 -29 60 -43 16 -15 41 -34 56 -43 16 -9 28 -20 28 -24 0 -4 5
-8 11 -8 5 0 27 -11 47 -25 50 -34 76 -32 103 8 13 17 29 38 36 45 7 7 13 20
13 28 0 8 7 17 15 20 8 4 15 12 15 19 0 6 9 20 20 30 27 25 26 63 -2 74 -29
11 -43 -1 -30 -25 13 -23 -1 -71 -28 -96 -11 -10 -20 -28 -20 -38 0 -11 -6
-20 -14 -20 -8 0 -16 -7 -20 -15 -10 -26 -62 -18 -98 16 -18 16 -53 43 -78 59
-25 16 -50 34 -57 40 -7 5 -15 10 -18 10 -5 0 -56 38 -131 99 -26 21 -51 21
-72 -2z"/>
<path d="M9423 6611 c-10 -10 -27 -23 -38 -29 -20 -11 -20 -11 1 -12 26 0 72
21 78 37 8 20 -23 23 -41 4z"/>
<path d="M8947 6538 c21 -7 44 -7 70 0 36 9 34 10 -32 10 -62 0 -66 -1 -38
-10z"/>
<path d="M2935 6100 c-4 -16 -10 -30 -15 -30 -5 0 -12 -15 -15 -32 -4 -18 -12
-39 -17 -45 -8 -9 -6 -13 5 -13 8 0 20 14 26 30 5 17 17 38 26 46 16 17 20 60
6 68 -5 4 -12 -7 -16 -24z"/>
<path d="M9440 6091 c0 -10 6 -21 14 -24 7 -3 17 -22 20 -41 4 -22 11 -34 18
-30 13 8 3 56 -18 89 -19 30 -34 32 -34 6z"/>
<path d="M9510 5973 c0 -13 5 -23 10 -23 13 0 13 11 0 30 -8 12 -10 11 -10 -7z"/>
<path d="M6040 5911 c0 -5 5 -13 10 -16 6 -3 10 -2 10 4 0 5 -4 13 -10 16 -5
3 -10 2 -10 -4z"/>
<path d="M6072 5881 c-9 -5 -6 -13 11 -27 37 -32 47 -37 47 -20 0 9 -7 16 -15
16 -8 0 -15 6 -15 14 0 19 -13 27 -28 17z"/>
<path d="M6150 5800 c0 -5 5 -10 11 -10 5 0 7 5 4 10 -3 6 -8 10 -11 10 -2 0
-4 -4 -4 -10z"/>
<path d="M6225 5731 c-3 -5 -1 -12 5 -16 5 -3 10 1 10 9 0 18 -6 21 -15 7z"/>
<path d="M6110 5703 c-8 -3 -27 -16 -41 -29 -14 -13 -51 -43 -81 -67 -53 -40
-265 -208 -354 -282 -79 -65 -78 -168 3 -213 38 -21 46 -22 84 -11 32 10 55
30 106 88 35 42 110 130 166 195 56 65 121 140 145 165 59 64 63 85 21 126
-19 19 -40 31 -49 28z"/>
<path d="M6250 5691 c0 -5 7 -11 15 -15 9 -3 15 0 15 9 0 8 -7 15 -15 15 -8 0
-15 -4 -15 -9z"/>
<path d="M6295 5650 c3 -5 10 -10 16 -10 5 0 9 5 9 10 0 6 -7 10 -16 10 -8 0
-12 -4 -9 -10z"/>
<path d="M6336 5605 c4 -8 8 -15 10 -15 2 0 4 7 4 15 0 8 -4 15 -10 15 -5 0
-7 -7 -4 -15z"/>
<path d="M6372 5568 c8 -12 24 -28 36 -36 20 -13 22 -13 22 2 0 9 -8 16 -20
16 -13 0 -20 7 -20 20 0 12 -7 20 -16 20 -15 0 -15 -2 -2 -22z"/>
<path d="M6430 5506 c0 -2 7 -6 15 -10 8 -3 15 -1 15 4 0 6 -7 10 -15 10 -8 0
-15 -2 -15 -4z"/>
<path d="M6510 5436 c0 -2 7 -9 15 -16 12 -10 15 -10 15 4 0 9 -7 16 -15 16
-8 0 -15 -2 -15 -4z"/>
<path d="M6555 5390 c3 -5 10 -10 16 -10 5 0 9 5 9 10 0 6 -7 10 -16 10 -8 0
-12 -4 -9 -10z"/>
<path d="M6590 5361 c0 -6 5 -13 10 -16 6 -3 10 1 10 9 0 9 -4 16 -10 16 -5 0
-10 -4 -10 -9z"/>
<path d="M6630 5321 c0 -5 5 -13 10 -16 6 -3 10 -2 10 4 0 5 -4 13 -10 16 -5
3 -10 2 -10 -4z"/>
<path d="M6666 5275 c4 -8 10 -15 15 -15 5 0 9 7 9 15 0 8 -7 15 -15 15 -9 0
-12 -6 -9 -15z"/>
<path d="M6702 5251 c2 -7 7 -12 11 -12 12 1 9 15 -3 20 -7 2 -11 -2 -8 -8z"/>
<path d="M6740 5210 c0 -5 5 -10 10 -10 6 0 10 5 10 10 0 6 -4 10 -10 10 -5 0
-10 -4 -10 -10z"/>
<path d="M3924 4603 c-22 -33 -84 -184 -124 -303 -16 -47 -33 -97 -38 -110
-52 -126 -88 -226 -126 -340 -24 -74 -51 -148 -60 -165 -9 -16 -16 -36 -16
-43 0 -8 -6 -26 -14 -40 -8 -15 -27 -63 -41 -107 -15 -44 -34 -94 -41 -112 -8
-17 -14 -36 -14 -43 0 -7 -6 -24 -14 -38 -8 -15 -24 -52 -36 -82 -37 -96 -39
-99 -86 -106 l-44 -6 0 -124 c0 -122 0 -125 24 -134 40 -15 196 -10 256 9 51
15 57 21 83 71 15 30 27 59 27 65 0 5 6 22 14 37 8 14 19 43 26 63 7 20 18 49
26 63 8 15 14 33 14 41 0 28 43 100 64 105 11 3 144 6 294 6 l273 0 24 -25
c14 -13 25 -33 25 -44 0 -11 5 -23 10 -26 6 -3 10 -13 10 -22 0 -9 9 -34 19
-57 24 -51 58 -143 66 -176 12 -48 56 -90 113 -104 65 -18 213 -20 247 -4 25
11 25 13 25 133 l0 123 -45 6 c-49 8 -78 38 -90 92 -4 16 -22 67 -40 114 -18
47 -45 121 -60 165 -15 44 -31 87 -35 96 -5 9 -12 33 -15 52 -4 20 -13 41 -21
48 -8 6 -14 19 -14 28 0 9 -7 28 -14 43 -8 15 -35 92 -61 170 -25 79 -51 152
-57 162 -6 11 -14 31 -19 45 -4 14 -20 58 -34 96 -14 39 -40 110 -57 158 -16
49 -36 101 -44 115 -8 15 -14 33 -14 40 0 15 -37 72 -55 84 -5 4 -74 8 -151 8
l-142 0 -18 -27z m193 -394 c21 -74 50 -171 76 -244 35 -103 104 -316 111
-347 12 -53 -6 -58 -210 -58 -109 0 -193 4 -205 10 -26 14 -24 39 10 145 16
50 39 120 50 158 12 37 25 75 30 85 17 33 48 127 61 182 29 126 55 150 77 69z"/>
<path d="M5029 4624 c-23 -7 -29 -34 -29 -141 0 -104 1 -106 78 -116 24 -3 52
-13 63 -23 18 -17 19 -39 19 -706 0 -663 1 -690 19 -727 29 -55 76 -67 266
-64 128 2 152 5 162 20 15 19 18 190 4 212 -5 7 -33 17 -62 22 -91 14 -83 -50
-89 737 -4 557 -8 702 -18 723 -27 51 -71 63 -242 65 -85 2 -162 0 -171 -2z"/>
<path d="M5948 4619 c-16 -9 -18 -26 -18 -133 0 -104 3 -125 16 -130 30 -11
219 -7 232 6 8 8 12 50 12 123 0 144 -1 145 -131 145 -52 0 -102 -5 -111 -11z"/>
<path d="M7029 4130 c-185 -51 -338 -174 -417 -336 -19 -38 -38 -77 -43 -86
-14 -28 -29 -139 -29 -223 0 -150 25 -240 101 -366 43 -71 148 -173 221 -216
105 -62 311 -94 470 -74 56 7 118 19 136 27 19 8 42 14 51 14 19 0 130 70 194
123 52 42 52 55 6 125 -16 24 -29 46 -29 50 0 4 -13 22 -28 40 l-28 33 -49
-39 c-65 -51 -113 -75 -206 -101 -89 -25 -144 -26 -224 -6 -84 22 -145 51
-184 88 -161 154 -169 428 -18 594 98 108 263 151 389 103 60 -23 82 -48 91
-104 3 -21 9 -41 12 -45 10 -9 232 -7 242 2 4 5 7 54 7 108 -2 89 -4 104 -27
138 -45 68 -126 120 -239 152 -91 26 -303 25 -399 -1z"/>
<path d="M8360 4130 c-72 -19 -160 -68 -240 -131 -52 -41 -142 -169 -169 -239
-70 -185 -65 -412 13 -561 67 -131 83 -151 175 -229 103 -87 187 -121 348
-141 204 -25 425 26 551 128 48 39 51 57 20 110 -12 21 -29 54 -39 74 -28 57
-45 66 -77 42 -127 -94 -334 -130 -474 -82 -109 37 -163 88 -217 200 -33 71
-39 113 -18 126 6 4 203 10 437 13 l424 5 15 39 c12 32 13 52 2 130 -20 147
-61 263 -124 348 -19 26 -131 118 -143 118 -3 0 -18 8 -32 18 -76 53 -316 70
-452 32z m314 -244 c58 -34 81 -62 106 -129 25 -66 21 -102 -12 -111 -30 -8
-492 -8 -512 0 -52 20 31 177 120 229 87 51 221 56 298 11z"/>
<path d="M5767 4113 c-4 -3 -7 -57 -7 -119 0 -123 0 -124 65 -124 96 0 95 7
95 -500 0 -479 0 -478 65 -506 45 -18 355 -20 373 -2 17 17 16 212 0 226 -7 5
-34 12 -59 16 -88 13 -83 -14 -89 503 l-5 455 -33 29 -32 29 -183 0 c-101 0
-187 -3 -190 -7z"/>
<path d="M4182 2043 c-8 -3 -2 -14 18 -33 l31 -29 -1 -118 c-2 -266 0 -363 10
-363 6 0 10 38 10 95 0 116 12 135 88 135 57 0 85 -17 115 -72 35 -65 44 -79
56 -91 6 -6 11 -19 11 -29 0 -25 40 -58 69 -57 14 0 20 3 14 6 -7 2 -13 11
-13 18 0 8 -8 19 -17 24 -10 5 -28 29 -40 53 -66 134 -68 148 -18 200 66 68
58 189 -16 241 -38 26 -43 27 -172 26 -72 0 -138 -3 -145 -6z m304 -55 c32
-30 35 -38 35 -89 1 -77 -5 -92 -50 -117 -30 -17 -55 -22 -114 -22 -98 0 -102
5 -102 130 0 127 3 130 111 130 81 0 86 -1 120 -32z"/>
<path d="M8077 1993 c-4 -3 -7 -20 -7 -36 0 -16 -8 -42 -17 -58 -16 -27 -16
-31 0 -58 13 -23 17 -54 17 -147 0 -104 3 -121 21 -149 23 -32 70 -65 95 -65
22 0 17 11 -22 45 -33 30 -37 39 -45 106 -20 173 -8 219 54 219 20 0 27 5 27
20 0 15 -7 20 -28 20 -33 0 -65 30 -56 53 6 16 -11 57 -25 57 -4 0 -11 -3 -14
-7z"/>
<path d="M5570 1955 c0 -8 5 -15 10 -15 6 0 10 7 10 15 0 8 -4 15 -10 15 -5 0
-10 -7 -10 -15z"/>
<path d="M5567 1912 c-41 -27 -47 -50 -18 -76 16 -15 20 -35 23 -144 4 -126
17 -182 43 -182 7 0 18 -7 25 -15 7 -8 24 -15 39 -15 29 1 31 -2 -36 48 -28
21 -44 88 -48 201 -3 76 -1 86 19 102 11 10 33 18 49 19 15 0 27 3 27 8 0 16
-16 30 -40 33 -13 2 -29 13 -35 25 l-10 21 -38 -25z"/>
<path d="M4795 1879 c-50 -27 -75 -53 -97 -102 -43 -94 -5 -234 72 -271 8 -4
26 -13 40 -21 38 -22 108 -18 164 10 38 18 46 26 33 31 -9 3 -28 -1 -42 -10
-38 -25 -133 -21 -166 7 -37 31 -79 95 -79 121 0 41 17 46 160 46 74 0 141 4
149 9 19 12 -2 102 -31 134 -62 67 -133 83 -203 46z m124 -29 c66 -33 106
-108 67 -123 -32 -12 -134 -18 -191 -10 -55 7 -60 10 -63 34 -4 33 38 81 88
102 47 20 54 20 99 -3z"/>
<path d="M5202 1871 c-45 -34 -57 -58 -48 -104 8 -38 29 -54 116 -92 108 -47
136 -96 84 -152 -22 -24 -34 -28 -76 -27 -27 0 -53 6 -57 12 -3 6 -19 15 -34
21 -22 9 -27 8 -27 -4 0 -8 5 -15 10 -15 6 0 24 -10 40 -21 24 -18 38 -21 86
-17 32 3 60 10 62 16 2 7 10 12 18 12 8 0 20 11 26 25 6 14 15 25 20 25 4 0 8
11 8 25 0 27 -68 105 -92 105 -9 0 -21 6 -27 14 -7 8 -26 17 -45 20 -36 7 -76
52 -76 85 0 46 97 75 149 45 17 -10 31 -22 31 -26 0 -4 7 -8 15 -8 9 0 15 9
15 24 0 18 -10 29 -40 45 -58 30 -108 27 -158 -8z"/>
<path d="M5893 1879 c-32 -15 -43 -25 -43 -43 0 -37 10 -37 48 0 42 41 77 44
133 12 30 -17 40 -30 45 -56 11 -55 -3 -66 -92 -75 -52 -5 -81 -13 -87 -22 -4
-8 -15 -15 -23 -15 -30 0 -64 -47 -63 -87 1 -50 8 -67 41 -93 33 -25 86 -36
125 -25 26 8 24 9 -22 16 -37 6 -57 16 -77 39 -39 43 -37 82 7 125 33 34 37
35 109 35 66 0 75 -2 81 -20 8 -25 -3 -98 -16 -106 -14 -8 -11 -44 5 -44 7 0
25 -9 39 -20 14 -11 32 -20 41 -20 15 0 15 3 1 36 -11 26 -15 72 -15 159 0 97
-3 125 -15 135 -8 7 -15 18 -15 26 0 7 -20 25 -43 39 -53 30 -106 32 -164 4z"/>
<path d="M7155 1885 c-43 -23 -56 -38 -46 -53 7 -11 17 -9 49 12 50 32 64 32
122 2 44 -22 45 -24 45 -72 l0 -49 -85 -8 c-56 -6 -88 -13 -93 -23 -4 -8 -15
-14 -22 -14 -33 0 -55 -38 -55 -95 0 -46 4 -58 27 -80 32 -29 78 -40 125 -29
l33 8 -49 7 c-68 11 -106 48 -106 106 0 34 5 45 23 54 12 7 27 18 32 26 8 10
31 13 90 11 l80 -3 3 -43 c2 -27 -3 -53 -12 -67 -9 -14 -16 -28 -16 -33 0 -14
77 -62 100 -62 20 0 20 1 3 27 -13 20 -19 58 -24 147 -9 147 -19 185 -61 216
-41 30 -120 38 -163 15z"/>
<path d="M7705 1885 c-16 -9 -37 -23 -45 -31 -13 -14 -8 -15 53 -9 100 11 145
-16 148 -88 1 -14 4 -10 9 13 12 48 3 82 -27 104 -35 26 -101 31 -138 11z"/>
<path d="M6262 1873 c-8 -13 -4 -21 14 -36 23 -18 24 -23 24 -148 0 -117 2
-132 23 -164 12 -19 32 -39 45 -45 44 -19 132 -9 132 16 0 8 9 14 20 14 11 0
20 5 20 10 0 14 -13 12 -36 -5 -26 -20 -94 -19 -120 3 -45 35 -54 73 -54 211
0 123 -1 131 -22 145 -28 20 -35 20 -46 -1z"/>
<path d="M6786 1882 c-11 -10 -6 -40 9 -52 12 -10 15 -41 15 -159 0 -153 6
-203 21 -179 5 7 9 51 9 98 0 63 6 96 20 129 11 24 20 48 20 55 0 16 59 66 79
66 26 0 42 15 35 33 -9 25 -24 21 -73 -18 -53 -42 -63 -43 -77 -7 -10 27 -45
47 -58 34z"/>
<path d="M7516 1873 c-5 -11 0 -23 13 -33 16 -12 20 -32 25 -110 3 -52 6 -126
6 -163 0 -43 4 -66 10 -62 6 3 10 48 10 99 0 61 5 103 14 122 8 16 19 41 25
57 6 15 15 27 21 27 5 0 10 5 10 10 0 6 -13 10 -30 10 -16 0 -30 3 -30 8 -1
14 -26 39 -46 46 -16 5 -24 2 -28 -11z"/>
<path d="M6599 1747 c-4 -105 -7 -127 -26 -158 l-23 -36 40 -27 c22 -14 40
-31 40 -36 0 -6 11 -10 25 -10 l24 0 -18 33 c-18 30 -30 146 -31 298 0 31 -5
49 -14 52 -11 5 -15 -17 -17 -116z"/>
<path d="M7870 1533 c1 -27 25 -53 49 -53 l21 0 -22 35 c-25 37 -48 46 -48 18z"/>
</g>
</svg>
