<?xml version="1.0" standalone="no"?>
<!DOCTYPE svg PUBLIC "-//W3C//DTD SVG 20010904//EN"
 "http://www.w3.org/TR/2001/REC-SVG-20010904/DTD/svg10.dtd">
<svg version="1.0" xmlns="http://www.w3.org/2000/svg"
 width="992.000000pt" height="604.000000pt" viewBox="0 0 822.000000 304.000000"
 preserveAspectRatio="xMidYMid meet">

<g transform="translate(0.000000,304.000000) scale(0.100000,-0.100000)"
fill="#FF0D18" stroke="none">
<path d="M1323 2509 c24 -344 227 -641 529 -771 157 -68 157 -68 711 -68 l497
0 0 270 0 270 -522 0 c-309 0 -560 4 -613 11 -216 25 -404 131 -555 311 l-53
63 6 -86z"/>
<path d="M6825 2503 c-133 -144 -252 -218 -420 -265 -77 -21 -98 -22 -657 -26
l-578 -3 0 -270 0 -269 499 0 499 0 87 25 c372 108 611 410 651 823 3 39 5 72
3 71 -2 0 -40 -39 -84 -86z"/>
<path d="M3220 2140 c0 -56 3 -70 15 -70 13 0 15 -22 15 -135 0 -113 -2 -135
-15 -135 -12 0 -15 -14 -15 -65 l0 -65 75 0 c90 0 141 18 155 55 6 15 10 61
10 103 0 64 -3 79 -22 99 -17 18 -19 26 -10 35 8 8 12 47 12 105 0 86 -2 96
-25 118 -22 23 -32 25 -110 25 l-85 0 0 -70z m145 -115 c0 -38 -2 -40 -32 -43
-33 -3 -33 -3 -33 43 0 46 0 46 33 43 30 -3 32 -5 32 -43z m3 -117 c15 -13 16
-80 0 -96 -7 -7 -25 -12 -40 -12 -27 0 -28 1 -28 58 0 32 3 62 7 65 8 8 42 -1
61 -15z"/>
<path d="M3490 2140 c0 -56 3 -70 15 -70 13 0 15 -26 15 -174 0 -158 2 -176
20 -199 25 -31 65 -42 102 -26 51 21 58 50 58 234 0 103 4 165 10 165 6 0 10
30 10 70 l0 70 -50 0 -50 0 0 -70 c0 -40 4 -70 10 -70 6 0 10 -48 10 -124 0
-105 -2 -125 -16 -130 -36 -14 -44 11 -44 135 0 72 4 120 11 124 6 4 9 33 7
71 l-3 64 -52 0 -53 0 0 -70z"/>
<path d="M3770 2141 c0 -57 3 -69 18 -73 15 -4 17 -18 14 -131 -3 -103 -6
-127 -18 -127 -11 0 -14 -16 -14 -70 l0 -70 65 0 65 0 0 70 c0 56 -3 70 -15
70 -11 0 -15 12 -15 50 l0 50 35 0 c28 0 35 4 35 20 0 16 -7 20 -35 20 l-35 0
0 60 0 60 30 0 c28 0 30 -3 30 -35 0 -32 2 -35 30 -35 l30 0 0 105 0 105 -110
0 -110 0 0 -69z"/>
<path d="M4030 2140 c0 -56 3 -70 15 -70 13 0 15 -21 15 -130 0 -109 -2 -130
-15 -130 -12 0 -15 -14 -15 -70 l0 -70 65 0 65 0 0 70 c0 56 -3 70 -15 70 -11
0 -15 12 -15 50 l0 50 35 0 c28 0 35 4 35 20 0 16 -7 20 -35 20 l-35 0 0 60 0
60 30 0 c28 0 30 -3 30 -35 0 -31 3 -35 25 -35 l25 0 0 105 0 105 -105 0 -105
0 0 -70z"/>
<path d="M4330 2200 c0 -6 -9 -93 -21 -193 -14 -123 -26 -186 -35 -193 -9 -8
-14 -33 -14 -78 l0 -66 50 0 50 0 0 66 c0 46 -4 70 -14 78 -10 7 -13 21 -9 39
4 23 10 27 38 27 34 0 45 -13 45 -51 0 -10 -7 -19 -15 -19 -12 0 -15 -14 -15
-70 l0 -70 55 0 55 0 0 68 c0 37 -5 73 -10 78 -6 6 -24 97 -41 202 l-32 192
-43 0 c-24 0 -44 -5 -44 -10z m59 -175 c15 -104 15 -105 -15 -105 l-27 0 6 68
c4 37 7 77 7 90 0 50 18 17 29 -53z"/>
<path d="M4550 2140 c0 -56 3 -70 15 -70 13 0 15 -21 15 -125 0 -102 -3 -127
-15 -131 -11 -5 -15 -23 -15 -75 l0 -69 110 0 110 0 0 125 0 125 -29 0 c-29 0
-30 -2 -33 -52 -3 -49 -5 -53 -30 -56 l-28 -3 0 130 c0 85 4 131 11 133 6 2
12 32 13 71 l1 67 -62 0 -63 0 0 -70z"/>
<path d="M4849 2184 c-24 -25 -24 -29 -27 -227 -2 -177 0 -206 15 -237 29 -57
117 -67 163 -18 19 20 20 35 20 240 l0 219 -25 24 c-35 36 -112 35 -146 -1z
m101 -133 c5 -11 10 -62 10 -113 0 -100 -13 -137 -44 -125 -14 5 -16 24 -16
125 0 65 3 122 7 125 12 13 32 7 43 -12z"/>
<path d="M3525 1535 l-25 -24 0 -221 0 -222 30 -30 c26 -25 36 -29 62 -24 18
3 40 14 50 22 16 15 18 15 24 0 3 -9 12 -16 20 -16 11 0 14 23 14 110 0 93 2
110 16 110 11 0 14 8 12 31 -3 31 -4 32 -50 31 -27 0 -52 -1 -58 -1 -16 -1
-12 -51 5 -57 18 -7 20 -55 3 -72 -17 -17 -45 -15 -52 4 -3 9 -6 60 -6 114 0
75 4 102 15 114 21 21 45 9 52 -25 4 -22 11 -29 29 -29 24 0 24 1 24 105 0 98
-1 105 -20 105 -11 0 -20 -7 -20 -15 0 -19 -19 -19 -44 0 -28 21 -53 18 -81
-10z"/>
<path d="M3760 1491 c0 -53 4 -70 15 -75 13 -5 15 -26 13 -133 -2 -96 -6 -127
-15 -126 -10 2 -13 -16 -13 -67 l0 -70 50 0 50 0 0 70 c0 40 -4 70 -10 70 -5
0 -10 25 -10 55 0 52 1 55 25 55 36 0 46 -30 44 -130 -3 -104 5 -120 62 -120
48 0 59 21 59 116 0 61 -15 90 -22 42 -2 -13 -10 -24 -19 -26 -19 -3 -29 24
-29 80 0 23 -6 40 -15 46 -14 7 -13 11 5 27 17 15 20 30 20 102 0 46 -5 93
-11 105 -16 29 -70 48 -139 48 l-60 0 0 -69z m131 -81 c25 -14 27 -85 3 -94
-43 -17 -54 -8 -54 42 0 63 10 73 51 52z"/>
<path d="M4080 1491 c0 -39 5 -73 10 -76 6 -4 10 -58 10 -131 0 -76 -4 -124
-10 -124 -6 0 -10 -30 -10 -70 l0 -70 60 0 60 0 0 70 c0 56 -3 70 -15 70 -13
0 -15 21 -15 125 0 102 3 127 15 131 11 5 15 23 15 75 l0 69 -60 0 -60 0 0
-69z"/>
<path d="M4267 1553 c-4 -3 -7 -34 -7 -69 0 -53 3 -62 20 -67 19 -5 20 -14 20
-130 0 -116 -1 -125 -20 -130 -17 -4 -20 -14 -20 -71 l0 -66 115 0 115 0 0
120 0 120 -35 0 -35 0 0 -51 c0 -49 -1 -50 -27 -47 l-26 3 1 125 c1 76 5 126
12 128 5 2 10 34 10 73 l0 69 -58 0 c-32 0 -62 -3 -65 -7z"/>
<path d="M4539 1558 c0 -2 -1 -33 -2 -70 -2 -56 1 -68 16 -72 15 -4 17 -18 17
-129 0 -110 -2 -125 -17 -129 -15 -4 -18 -15 -15 -71 l4 -67 109 0 109 0 0
120 0 120 -30 0 c-29 0 -30 -1 -30 -48 0 -57 -2 -61 -35 -54 l-25 4 0 129 c0
79 4 129 10 129 6 0 10 30 10 70 l0 70 -60 0 c-33 0 -60 -1 -61 -2z"/>
<path d="M4924 1540 c-59 -24 -72 -104 -25 -151 74 -73 191 6 151 102 -20 48
-76 69 -126 49z m97 -29 c32 -33 36 -58 14 -100 -38 -74 -155 -43 -155 41 1
80 85 115 141 59z"/>
<path d="M4947 1503 c-4 -3 -6 -29 -6 -57 1 -28 3 -43 6 -33 6 22 19 22 27 1
4 -9 9 -14 13 -11 3 4 0 14 -7 22 -10 12 -10 19 -2 27 17 17 15 45 -4 52 -19
7 -19 7 -27 -1z m33 -29 c0 -8 -7 -14 -15 -14 -15 0 -21 21 -9 33 10 9 24 -2
24 -19z"/>
</g>
</svg>
