<?xml version="1.0" standalone="no"?>
<!DOCTYPE svg PUBLIC "-//W3C//DTD SVG 20010904//EN"
 "http://www.w3.org/TR/2001/REC-SVG-20010904/DTD/svg10.dtd">
<svg version="1.0" xmlns="http://www.w3.org/2000/svg"
 width="826.000000pt" height="572.000000pt" viewBox="0 0 826.000000 572.000000"
 preserveAspectRatio="xMidYMid meet">

<g transform="translate(0.000000,572.000000) scale(0.100000,-0.100000)"
fill="#000000" stroke="none">
<path d="M3630 5329 c-274 -29 -440 -211 -440 -484 0 -246 134 -418 370 -476
30 -8 102 -14 160 -14 58 0 130 6 160 14 235 58 370 233 370 480 -1 325 -251
518 -620 480z m183 -65 c135 -46 216 -205 217 -425 0 -203 -76 -353 -208 -411
-55 -25 -168 -22 -224 6 -118 57 -188 206 -188 402 0 170 35 280 114 360 80
79 184 104 289 68z"/>
<path d="M4978 4890 l3 -447 -23 -26 c-13 -14 -39 -30 -58 -36 -25 -7 24 -9
175 -9 155 0 200 3 173 10 -73 19 -73 16 -76 335 l-3 286 49 -44 c27 -24 182
-171 344 -326 163 -156 298 -283 300 -283 3 0 1 24 -3 53 -4 28 -8 228 -8 442
-1 294 2 396 12 415 7 15 31 32 57 42 45 17 44 17 -165 17 -200 -1 -208 -1
-167 -16 73 -26 73 -24 70 -336 l-3 -276 -205 195 c-113 108 -266 253 -340
323 l-135 129 3 -448z"/>
<path d="M6695 5330 c-16 -4 -167 -8 -335 -10 l-305 -1 42 -19 c23 -10 46 -28
52 -39 7 -13 11 -154 11 -419 0 -376 -1 -401 -19 -423 -10 -13 -34 -29 -52
-35 -28 -10 28 -13 317 -13 l352 -1 17 78 c9 42 23 103 30 135 16 67 7 74 -18
14 -26 -64 -74 -117 -131 -143 -45 -21 -66 -24 -173 -24 l-123 0 0 190 0 190
101 0 c140 0 179 -22 202 -115 3 -11 5 52 5 140 1 150 0 157 -13 120 -27 -75
-89 -101 -230 -93 l-60 3 -3 198 -2 198 146 -3 146 -3 34 -37 c19 -21 34 -48
34 -60 0 -13 5 -30 10 -38 7 -10 10 23 10 103 0 64 -3 116 -7 116 -5 -1 -21
-5 -38 -9z"/>
<path d="M1577 5300 c23 -10 46 -28 52 -39 7 -13 11 -154 11 -419 0 -376 -1
-401 -19 -423 -10 -13 -34 -29 -52 -35 -29 -11 -1 -12 176 -12 201 0 208 0
167 15 -73 26 -73 26 -70 473 l3 388 24 26 c14 14 32 26 40 26 9 0 23 5 31 10
10 6 -56 10 -195 9 l-210 0 42 -19z"/>
<path d="M2090 5304 c75 -34 70 -1 70 -454 0 -384 -1 -409 -19 -431 -10 -13
-34 -29 -52 -36 -54 -20 567 -11 636 9 223 66 339 223 338 458 -1 229 -119
383 -339 445 -48 14 -118 18 -364 21 -284 3 -303 3 -270 -12z m542 -60 c111
-37 187 -155 209 -321 27 -209 -44 -396 -175 -466 -35 -18 -61 -22 -173 -25
l-133 -4 0 416 0 416 113 0 c76 0 128 -5 159 -16z"/>
<path d="M4407 5300 c23 -10 46 -28 52 -39 7 -13 11 -154 11 -419 0 -376 -1
-401 -19 -423 -10 -13 -34 -29 -52 -35 -29 -11 -1 -12 176 -12 201 0 208 0
167 15 -73 26 -73 26 -70 473 l3 388 24 26 c14 14 32 26 40 26 9 0 23 5 31 10
10 6 -56 10 -195 9 l-210 0 42 -19z"/>
<path d="M4118 3840 l-84 -90 -33 -152 c-17 -84 -56 -269 -86 -412 -30 -142
-57 -261 -60 -264 -6 -6 -42 9 -480 193 -165 69 -340 142 -388 162 l-88 36
-125 -53 c-68 -29 -124 -56 -124 -59 0 -4 257 -121 571 -260 522 -232 570
-256 565 -275 -3 -12 -111 -284 -240 -606 l-235 -585 191 -3 c105 -1 193 0
195 2 3 2 29 163 59 358 136 885 99 711 393 1841 37 141 64 257 60 257 -4 0
-45 -40 -91 -90z"/>
<path d="M4240 3921 c0 -7 20 -88 44 -180 24 -91 74 -283 111 -426 37 -143 89
-343 116 -445 48 -180 67 -279 108 -545 11 -71 45 -291 75 -487 31 -196 56
-359 56 -362 0 -3 86 -6 190 -6 110 0 190 4 190 9 0 5 -99 257 -219 559 -121
302 -229 571 -240 599 l-19 50 101 45 c56 25 315 139 574 254 260 115 473 211
473 214 0 3 -12 11 -27 17 -16 6 -72 30 -125 53 l-97 43 -471 -197 c-258 -109
-476 -196 -483 -193 -7 2 -18 33 -25 68 -41 202 -153 736 -158 749 -8 24 -174
197 -174 181z"/>
<path d="M3493 3609 c-80 -39 -123 -111 -123 -204 0 -64 15 -106 55 -153 102
-121 303 -93 371 51 57 124 5 261 -119 315 -45 19 -136 15 -184 -9z"/>
<path d="M4765 3611 c-168 -77 -182 -304 -25 -398 194 -117 416 91 315 294
-26 51 -72 91 -128 112 -43 16 -117 13 -162 -8z"/>
<path d="M1386 903 c-147 -3 -158 -5 -138 -19 22 -15 22 -20 22 -238 0 -227
-3 -246 -40 -259 -8 -3 35 -6 95 -6 95 -1 107 1 85 12 -24 12 -25 17 -28 120
l-3 107 64 0 c67 0 89 -12 100 -55 2 -11 5 21 5 70 1 84 0 88 -12 59 -15 -35
-38 -44 -108 -44 l-48 0 0 110 0 110 78 0 c69 0 81 -3 99 -22 12 -13 23 -32
26 -43 3 -11 5 8 6 43 1 59 0 62 -21 60 -13 -1 -95 -4 -182 -5z"/>
<path d="M1943 896 c-122 -40 -183 -126 -183 -260 1 -167 136 -279 319 -263
158 13 250 101 259 247 11 175 -89 280 -272 287 -50 2 -97 -2 -123 -11z m188
-39 c19 -12 45 -43 59 -67 22 -40 25 -57 25 -150 0 -120 -18 -170 -77 -212
-46 -32 -130 -32 -176 0 -59 42 -77 92 -77 212 0 93 3 110 25 150 49 88 146
117 221 67z"/>
<path d="M3250 902 c0 -31 -60 -472 -66 -486 -3 -8 -18 -19 -32 -25 -22 -7
-11 -9 53 -10 57 0 74 3 58 9 -15 6 -23 18 -23 32 0 45 23 243 29 250 3 4 47
-63 96 -147 50 -85 92 -154 95 -155 3 0 10 15 15 32 16 49 159 285 162 268 9
-49 29 -257 26 -267 -3 -6 -12 -14 -21 -16 -10 -3 35 -5 98 -4 63 0 105 2 94
4 -44 8 -51 31 -84 278 -17 132 -33 241 -34 243 -2 2 -52 -80 -112 -183 -59
-102 -111 -185 -115 -185 -3 0 -51 75 -107 168 -112 185 -131 214 -132 194z"/>
<path d="M4194 895 c-27 -74 -209 -473 -221 -487 -8 -9 -25 -19 -37 -21 -11
-2 17 -5 64 -5 60 -1 78 2 63 8 -28 12 -29 24 -2 89 l22 51 87 0 88 0 21 -53
c23 -56 21 -83 -7 -90 -10 -3 37 -5 103 -5 71 -1 112 3 100 7 -35 15 -50 41
-140 241 -121 271 -131 290 -141 265z m46 -327 c0 -4 -31 -8 -70 -8 -38 0 -70
2 -70 5 0 3 12 34 26 68 15 34 31 73 36 87 9 23 12 18 44 -59 19 -47 34 -88
34 -93z"/>
<path d="M4581 845 c1 -52 2 -56 10 -30 13 43 35 55 106 55 l63 0 -2 -232 -3
-232 -25 -13 c-22 -11 -9 -13 90 -12 77 0 108 3 93 9 -39 16 -43 40 -43 264
l0 216 68 0 c58 0 72 -3 89 -22 12 -13 23 -32 26 -43 3 -11 5 7 6 40 l1 60
-240 0 -240 0 1 -60z"/>
<path d="M5783 896 c-122 -40 -183 -126 -183 -260 1 -167 136 -279 319 -263
158 13 250 101 259 247 11 175 -89 280 -272 287 -50 2 -97 -2 -123 -11z m188
-39 c19 -12 45 -43 59 -67 22 -40 25 -57 25 -150 0 -120 -18 -170 -77 -212
-46 -32 -130 -32 -176 0 -59 42 -77 92 -77 212 0 93 3 110 25 150 49 88 146
117 221 67z"/>
<path d="M6388 660 l-3 -254 -25 -13 c-21 -11 -9 -13 90 -11 63 0 105 3 93 5
-40 8 -44 23 -41 184 l3 154 125 -120 c69 -65 152 -145 185 -177 l60 -57 -3
243 c-3 236 -3 245 17 265 l21 21 -91 0 c-88 0 -91 -1 -70 -17 21 -17 22 -25
19 -173 l-3 -155 -115 110 c-63 60 -148 141 -187 179 l-73 70 -2 -254z"/>
<path d="M2549 883 c21 -18 21 -23 19 -248 l-3 -229 -25 -13 c-21 -11 -9 -13
90 -12 63 1 106 3 95 6 -42 10 -45 26 -45 260 l0 223 44 0 c33 0 52 -6 72 -24
24 -20 28 -31 28 -79 1 -69 -24 -107 -79 -123 -28 -7 -34 -12 -22 -17 9 -3 36
-46 61 -94 24 -48 53 -96 64 -106 33 -30 92 -46 162 -46 51 1 59 2 37 9 -41
12 -51 23 -118 121 -34 49 -70 91 -82 95 -21 7 -20 8 10 20 51 22 85 75 85
134 0 62 -21 96 -75 121 -35 15 -66 19 -191 19 -143 0 -147 -1 -127 -17z"/>
<path d="M5238 884 c22 -15 22 -19 22 -238 0 -233 -3 -249 -45 -259 -11 -3 32
-5 95 -6 99 -1 111 1 90 12 l-25 13 -3 229 c-2 225 -2 230 19 248 21 16 18 17
-77 17 -92 0 -97 -1 -76 -16z"/>
</g>
</svg>
