<?xml version="1.0" standalone="no"?>
<!DOCTYPE svg PUBLIC "-//W3C//DTD SVG 20010904//EN"
 "http://www.w3.org/TR/2001/REC-SVG-20010904/DTD/svg10.dtd">
<svg version="1.0" xmlns="http://www.w3.org/2000/svg"
 width="600.000000pt" height="416.000000pt" viewBox="0 0 600.000000 416.000000"
 preserveAspectRatio="xMidYMid meet">

<g transform="translate(0.000000,416.000000) scale(0.100000,-0.100000)"
fill="#000000" stroke="none">
<path d="M2565 3861 c-107 -35 -182 -99 -220 -187 -45 -104 -25 -290 39 -369
72 -87 155 -125 290 -133 115 -6 185 10 262 60 71 47 113 106 137 194 21 76
21 122 0 198 -35 127 -110 201 -246 240 -70 20 -196 19 -262 -3z m204 -31 c39
-11 95 -61 118 -105 24 -46 42 -133 43 -205 0 -118 -40 -221 -108 -276 -32
-25 -47 -29 -109 -32 -88 -5 -134 17 -180 86 -42 63 -53 108 -53 225 0 136 19
197 80 258 26 26 58 49 71 52 45 8 104 7 138 -3z"/>
<path d="M3618 3550 l3 -328 -27 -21 -27 -21 124 1 c68 0 117 3 109 6 -43 17
-45 28 -48 246 -3 232 -7 221 54 162 11 -11 96 -92 189 -180 93 -88 183 -174
200 -190 65 -65 60 -86 57 266 -4 352 -2 363 55 372 16 2 -39 4 -122 4 -82 0
-140 -2 -129 -4 52 -10 55 -24 52 -246 l-3 -206 -110 105 c-135 130 -241 231
-320 306 l-60 56 3 -328z"/>
<path d="M4625 3870 c-126 -3 -221 -7 -209 -8 11 -1 30 -12 42 -25 22 -23 22
-29 22 -314 0 -262 -2 -292 -17 -310 -10 -11 -25 -22 -33 -26 -8 -3 96 -6 232
-6 l247 -1 6 38 c4 20 13 61 21 91 15 52 13 86 -2 39 -13 -42 -58 -90 -102
-109 -31 -14 -68 -19 -128 -19 l-84 0 0 140 0 140 75 0 c82 0 118 -12 133 -44
8 -16 11 -2 11 64 0 66 -3 80 -11 64 -18 -38 -46 -47 -145 -45 l-63 1 0 145 0
145 91 0 c110 0 155 -17 168 -64 8 -26 9 -19 10 42 1 63 -1 72 -16 70 -10 -1
-121 -5 -248 -8z"/>
<path d="M1135 3863 c11 -3 28 -12 38 -21 15 -14 17 -42 17 -318 l0 -303 -26
-20 -27 -21 134 1 c74 0 127 3 119 6 -8 3 -23 12 -32 21 -16 14 -18 42 -18
317 0 275 2 303 18 317 9 9 26 18 37 21 11 2 -47 5 -130 5 -82 0 -141 -3 -130
-5z"/>
<path d="M1530 3852 l35 -17 3 -304 c2 -319 2 -323 -43 -342 -12 -6 70 -8 211
-6 l230 3 66 32 c74 36 141 98 166 151 12 27 16 67 16 156 1 139 -11 172 -87
242 -89 82 -185 103 -472 103 -159 0 -160 0 -125 -18z m383 -35 c51 -18 92
-60 124 -127 23 -48 27 -68 27 -160 1 -128 -18 -192 -73 -248 -47 -47 -95 -62
-200 -62 l-81 0 0 298 c0 164 3 302 7 305 11 12 157 7 196 -6z"/>
<path d="M3199 3859 c50 -20 50 -24 51 -340 0 -270 -2 -297 -17 -311 -10 -9
-25 -18 -33 -21 -8 -3 46 -5 120 -6 100 0 129 3 114 11 -40 19 -44 46 -44 336
0 298 2 311 54 332 13 6 -33 9 -124 9 -103 0 -138 -3 -121 -10z"/>
<path d="M2994 2792 c-64 -71 -71 -88 -98 -237 -9 -44 -24 -120 -36 -170 -11
-49 -28 -129 -37 -177 -9 -49 -19 -88 -23 -88 -7 0 -237 95 -315 130 -22 9
-107 45 -190 79 -82 34 -158 66 -168 72 -14 8 -28 6 -50 -4 -18 -9 -59 -27
-92 -42 l-60 -27 40 -19 c93 -43 216 -99 220 -99 2 0 37 -15 77 -34 40 -18
143 -64 228 -101 85 -37 160 -71 165 -75 6 -3 31 -14 57 -24 l47 -17 -15 -41
c-7 -22 -41 -108 -75 -191 -34 -84 -72 -179 -85 -212 -24 -64 -75 -191 -129
-320 -18 -44 -36 -90 -40 -102 l-6 -23 138 0 139 0 12 83 c104 681 122 786
157 917 64 235 204 784 201 787 -1 1 -29 -28 -62 -65z"/>
<path d="M3080 2854 c0 -4 19 -76 41 -163 23 -86 52 -196 64 -246 13 -49 49
-189 80 -310 31 -121 68 -290 81 -375 13 -85 31 -198 40 -250 8 -52 26 -168
39 -258 13 -89 27 -167 30 -172 10 -16 279 -13 272 3 -3 6 -22 53 -42 102 -20
50 -42 104 -50 120 -7 17 -25 62 -39 100 -15 39 -33 84 -40 100 -8 17 -26 62
-40 100 -15 39 -33 84 -40 100 -8 17 -26 62 -40 100 -15 39 -34 85 -43 103
-19 43 -14 54 33 71 22 8 76 31 122 52 46 22 85 39 87 39 3 0 43 18 90 40 47
22 87 40 90 40 2 0 43 18 90 40 47 22 88 40 90 40 3 0 42 17 87 39 46 21 94
42 107 46 31 9 21 18 -76 58 l-83 35 -342 -144 c-187 -79 -344 -144 -348 -144
-3 0 -11 21 -17 48 -19 79 -98 454 -109 516 -5 30 -23 57 -70 108 -35 37 -64
65 -64 62z"/>
<path d="M2534 2620 c-103 -52 -113 -204 -17 -277 102 -78 253 0 253 130 0
128 -121 203 -236 147z"/>
<path d="M3453 2619 c-32 -16 -48 -33 -68 -72 -29 -59 -30 -75 -10 -125 40
-94 137 -137 218 -96 124 64 126 239 4 294 -54 25 -92 25 -144 -1z"/>
<path d="M1020 651 l-105 -6 0 -183 0 -182 54 0 c43 0 52 3 43 12 -7 7 -12 42
-12 85 l0 73 54 0 c34 0 56 -5 59 -12 3 -7 6 4 6 25 1 35 0 37 -15 23 -9 -10
-33 -16 -60 -16 l-44 0 0 80 0 80 63 0 c36 0 68 -5 75 -12 9 -9 12 -6 12 15 0
16 -5 26 -12 25 -7 -1 -60 -4 -118 -7z"/>
<path d="M1414 651 c-98 -25 -151 -125 -127 -241 3 -19 24 -51 47 -75 102
-106 301 -72 352 60 32 84 1 188 -68 231 -43 28 -146 40 -204 25z m140 -32
c43 -34 56 -70 56 -156 0 -68 -4 -84 -26 -116 -59 -87 -159 -73 -205 27 -37
81 -13 207 47 246 38 26 94 26 128 -1z"/>
<path d="M2360 654 c0 -5 -5 -47 -10 -94 -6 -47 -14 -123 -20 -169 -5 -46 -15
-89 -21 -97 -9 -11 -6 -14 19 -14 24 0 30 4 25 15 -3 9 0 58 7 110 15 109 10
111 100 -43 54 -91 55 -92 65 -64 12 35 103 190 116 198 5 3 9 -16 10 -43 0
-26 4 -72 8 -100 5 -33 3 -57 -3 -63 -7 -7 10 -10 53 -10 54 0 60 2 48 14 -8
8 -17 41 -20 73 -27 244 -34 286 -47 278 -4 -3 -38 -59 -75 -125 -37 -66 -71
-123 -76 -126 -4 -2 -19 12 -31 34 -13 21 -29 47 -36 57 -6 11 -24 42 -40 68
-35 61 -72 114 -72 101z"/>
<path d="M3042 640 c-30 -78 -119 -281 -146 -332 -15 -28 -15 -28 14 -28 21 0
28 4 24 14 -3 8 4 32 16 55 l20 41 61 0 c60 0 60 0 75 -37 9 -20 13 -44 11
-55 -5 -16 2 -18 60 -18 62 0 65 1 50 18 -8 9 -27 44 -42 77 -15 33 -43 94
-61 135 -19 41 -43 93 -54 115 -19 39 -19 39 -28 15z m10 -149 c10 -22 20 -51
24 -65 6 -25 5 -26 -45 -26 -34 0 -51 4 -51 12 0 17 42 118 49 118 4 0 14 -18
23 -39z"/>
<path d="M3330 631 c0 -20 3 -22 12 -13 7 7 36 12 65 12 l53 0 0 -163 c0 -113
-4 -167 -12 -175 -9 -9 2 -12 52 -12 50 0 61 3 52 12 -8 8 -12 62 -12 175 l0
163 53 0 c29 0 58 -5 65 -12 9 -9 12 -7 12 13 l0 24 -170 0 -170 0 0 -24z"/>
<path d="M4198 651 c-84 -28 -134 -107 -125 -200 11 -131 119 -201 263 -171
130 27 189 158 129 284 -27 57 -82 87 -169 92 -39 2 -83 0 -98 -5z m142 -27
c42 -26 60 -73 60 -162 0 -67 -4 -83 -26 -115 -58 -86 -153 -77 -200 20 -22
44 -26 63 -22 111 6 69 34 132 68 149 35 18 87 16 120 -3z"/>
<path d="M4640 480 c0 -100 -3 -186 -6 -191 -3 -5 16 -9 43 -9 l48 0 -3 127
-3 128 47 -45 c26 -25 57 -54 69 -65 11 -11 52 -50 90 -87 l70 -68 0 190 0
190 -49 0 c-39 0 -47 -3 -38 -12 15 -15 17 -231 2 -226 -9 3 -43 34 -197 181
l-72 69 -1 -182z"/>
<path d="M1858 638 c8 -8 12 -61 12 -173 0 -112 -4 -165 -12 -173 -9 -9 2 -12
53 -11 35 0 58 3 52 6 -10 3 -13 48 -13 174 l0 169 40 0 c36 0 42 -4 57 -34
22 -47 9 -93 -36 -123 -19 -13 -30 -23 -24 -23 5 0 24 -30 41 -68 37 -77 54
-91 125 -99 l52 -6 -25 24 c-14 13 -36 42 -50 64 -13 22 -34 50 -47 62 -29 27
-29 29 0 37 24 6 46 37 49 71 4 57 -3 76 -34 95 -28 17 -51 20 -142 20 -86 0
-107 -3 -98 -12z"/>
<path d="M3818 479 c2 -121 0 -174 -9 -185 -10 -12 -2 -14 51 -14 53 0 61 2
51 14 -9 11 -11 64 -9 185 l3 171 -45 0 -45 0 3 -171z"/>
</g>
</svg>
