<?xml version="1.0" standalone="no"?>
<!DOCTYPE svg PUBLIC "-//W3C//DTD SVG 20010904//EN"
 "http://www.w3.org/TR/2001/REC-SVG-20010904/DTD/svg10.dtd">
<svg version="1.0" xmlns="http://www.w3.org/2000/svg"
 width="212.000000pt" height="143.000000pt" viewBox="0 0 212.000000 143.000000"
 preserveAspectRatio="xMidYMid meet">

<g transform="translate(0.000000,143.000000) scale(0.100000,-0.100000)"
fill="#000000" stroke="none">
<path d="M1108 1390 c3 -18 10 -30 19 -30 10 0 13 6 9 16 -3 9 -6 22 -6 30 0
8 -6 14 -13 14 -9 0 -12 -10 -9 -30z"/>
<path d="M1170 1395 c0 -16 6 -25 15 -25 9 0 15 9 15 25 0 16 -6 25 -15 25 -9
0 -15 -9 -15 -25z"/>
<path d="M1250 1395 c0 -14 5 -25 10 -25 6 0 10 11 10 25 0 14 -4 25 -10 25
-5 0 -10 -11 -10 -25z"/>
<path d="M1320 1385 c0 -28 15 -34 24 -9 10 25 7 34 -9 34 -9 0 -15 -9 -15
-25z"/>
<path d="M933 1393 c104 -4 108 -5 117 -28 12 -32 35 -34 26 -2 -3 12 -6 25
-6 30 0 4 -55 6 -122 5 l-123 -2 108 -3z"/>
<path d="M1387 1384 c-10 -10 -9 -44 2 -44 13 0 23 32 13 42 -5 5 -11 5 -15 2z"/>
<path d="M836 1363 l131 -4 14 -30 c12 -25 17 -28 26 -18 7 9 7 22 2 37 -8 22
-11 22 -156 20 l-148 -2 131 -3z"/>
<path d="M1446 1344 c-9 -24 -7 -34 8 -34 16 0 29 27 20 41 -8 14 -21 11 -28
-7z"/>
<path d="M650 1323 c14 -3 29 -9 35 -14 5 -5 55 -9 111 -9 94 0 104 -2 118
-21 9 -14 21 -19 31 -15 15 5 15 8 -2 36 l-17 30 -151 -1 c-82 -1 -139 -4
-125 -6z"/>
<path d="M1510 1295 c-10 -12 -10 -19 -2 -27 15 -15 48 14 38 31 -10 15 -21
14 -36 -4z"/>
<path d="M552 1265 c12 -13 60 -19 169 -22 100 -4 119 -7 135 -24 9 -10 21
-19 26 -19 15 0 8 37 -10 53 -16 14 -43 17 -172 17 -84 0 -151 -2 -148 -5z"/>
<path d="M1330 1263 c0 -5 -7 -16 -15 -27 -13 -18 -16 -18 -49 -2 -19 9 -48
19 -64 22 -40 8 -56 -21 -50 -87 3 -32 1 -49 -6 -49 -34 -1 -38 -17 -16 -61
22 -42 32 -96 29 -149 0 -14 -2 -41 -2 -60 -1 -19 -10 -43 -20 -53 -10 -10
-20 -31 -24 -47 -3 -17 -11 -30 -19 -30 -7 0 -21 -13 -31 -30 -9 -16 -22 -30
-28 -30 -5 0 -26 -10 -45 -22 -41 -25 -70 -30 -162 -28 -114 1 -201 -57 -215
-145 l-6 -37 -51 7 c-125 16 -232 98 -278 213 -19 49 -22 75 -22 192 -1 99 4
153 18 202 10 38 16 74 13 80 -12 36 -57 -198 -57 -295 0 -77 35 -204 71 -257
57 -84 153 -140 266 -155 38 -5 54 -12 58 -25 10 -31 91 -98 131 -109 47 -13
121 -14 128 -2 3 4 28 6 56 3 50 -5 140 20 140 38 0 4 17 11 37 15 52 9 86 29
120 68 15 18 41 39 57 47 33 17 86 84 86 110 0 9 9 25 21 36 31 28 59 88 59
127 0 19 7 51 15 70 16 40 20 133 6 141 -5 3 -7 23 -4 45 6 45 -9 99 -37 132
-11 12 -20 31 -20 41 0 22 -25 75 -48 101 -15 17 -42 23 -42 10z m61 -78 c24
-52 24 -87 0 -102 -17 -10 -25 -7 -56 22 -40 36 -40 43 -8 113 13 27 18 30 31
20 8 -7 23 -31 33 -53z m-131 30 c23 -12 30 -22 30 -45 0 -23 -4 -30 -20 -30
-11 0 -20 -4 -20 -10 0 -19 -59 -11 -70 9 -11 22 -14 74 -3 84 11 12 53 8 83
-8z m47 -115 c42 -25 57 -54 43 -81 -7 -11 -18 -18 -25 -15 -7 2 -21 -1 -31
-9 -44 -31 -72 35 -42 100 14 30 14 30 55 5z m-81 -3 c0 -1 -1 -21 -4 -44 -5
-52 -20 -55 -56 -12 -30 36 -33 56 -8 62 14 4 65 -1 68 -6z m223 -38 c18 -51
14 -106 -9 -129 -29 -29 -42 -25 -66 20 -20 35 -20 41 -7 67 16 31 53 73 64
73 4 0 12 -14 18 -31z m-192 -83 c8 -8 -27 -86 -38 -86 -12 0 -36 40 -45 74
l-7 29 42 -6 c24 -3 45 -8 48 -11z m101 -44 c22 -40 23 -43 6 -59 -21 -21 -89
-26 -104 -8 -21 26 27 119 58 113 9 -2 27 -22 40 -46z m112 -64 c0 -24 -9 -62
-20 -85 -16 -36 -24 -43 -47 -43 -26 0 -30 5 -40 48 -6 26 -9 51 -6 55 9 15
86 67 100 67 9 0 13 -13 13 -42z m-231 -7 l24 -18 -28 -36 c-30 -38 -49 -39
-59 -4 -7 28 -8 72 0 79 8 9 36 -1 63 -21z m107 -89 c6 -29 3 -38 -17 -53 -15
-11 -28 -14 -33 -8 -6 5 -22 9 -37 9 -55 0 -41 61 24 100 30 19 33 19 44 3 7
-9 16 -32 19 -51z m-152 -23 l26 -31 -36 -24 c-42 -29 -54 -24 -54 21 0 72 23
84 64 34z m246 -39 c0 -23 -29 -78 -54 -103 -17 -17 -38 -27 -57 -27 -30 0
-30 0 -27 53 3 48 5 53 38 69 38 20 100 24 100 8z m-316 -44 c9 -19 16 -38 16
-43 0 -12 -70 -34 -82 -27 -14 9 -9 45 13 75 26 37 33 36 53 -5z m156 -13 c0
-57 -6 -68 -42 -77 -21 -5 -28 -3 -28 9 0 8 -6 15 -14 15 -8 0 -22 7 -31 16
-15 15 -15 18 2 37 20 22 69 46 96 47 14 0 17 -9 17 -47z m-246 -39 c3 -9 6
-29 6 -45 0 -28 -2 -29 -45 -29 -54 0 -60 19 -18 62 30 32 48 35 57 12z m-98
-29 c6 -14 -13 -85 -22 -85 -5 0 -66 30 -72 35 -10 8 16 39 42 51 40 17 45 17
52 -1z m-96 0 c0 -32 -69 -108 -113 -124 -36 -14 -97 -14 -97 -1 0 35 56 101
100 119 27 10 110 15 110 6z m334 -1 c9 -3 16 -16 16 -28 0 -24 -35 -86 -49
-86 -20 0 -41 13 -41 24 0 7 -11 18 -24 25 -15 8 -22 19 -19 30 7 29 79 50
117 35z m159 -24 c42 0 -1 -68 -64 -101 -37 -18 -58 -17 -87 6 -1 1 7 23 18
48 21 47 45 60 95 51 11 -2 28 -4 38 -4z m-282 -50 c27 -15 24 -39 -12 -76
-27 -28 -34 -31 -55 -22 -13 6 -24 18 -24 26 0 9 -7 23 -15 32 -26 29 -8 50
42 50 24 0 53 -5 64 -10z m-178 -14 c18 -7 40 -22 49 -33 17 -19 17 -20 -5
-41 -43 -40 -68 -43 -107 -11 -19 16 -40 29 -47 29 -20 0 -15 18 6 25 10 3 26
14 36 25 21 24 26 24 68 6z m305 -56 c23 -10 42 -23 42 -27 0 -17 -72 -56
-112 -60 -35 -4 -47 -1 -62 16 -18 20 -18 21 10 55 34 40 60 44 122 16z m-419
-19 c47 -24 101 -85 101 -113 0 -19 -5 -20 -53 -16 -64 5 -136 50 -160 100
l-16 33 37 6 c20 3 41 7 45 8 4 0 25 -8 46 -18z m214 -22 c25 -13 77 -60 77
-69 0 -13 -51 -30 -88 -30 -56 0 -78 9 -91 36 -14 32 -14 34 3 34 8 0 24 9 37
20 28 23 33 24 62 9z"/>
<path d="M1570 1235 c-10 -12 -10 -19 -2 -27 15 -15 48 14 38 31 -10 15 -21
14 -36 -4z"/>
<path d="M500 1188 c0 -5 11 -8 24 -8 14 0 28 -4 31 -10 4 -6 55 -10 118 -10
83 -1 117 -4 131 -15 11 -8 23 -15 28 -15 14 0 8 26 -10 43 -14 13 -47 17
-170 19 -83 2 -152 0 -152 -4z"/>
<path d="M1622 1157 c-6 -7 -7 -19 -3 -26 11 -17 51 6 44 26 -7 17 -27 17 -41
0z"/>
<path d="M465 1103 c11 -3 24 -9 30 -14 5 -5 60 -9 122 -9 75 0 125 -5 148
-14 30 -13 34 -13 39 1 4 9 5 16 4 17 -2 1 -13 7 -25 14 -16 8 -71 12 -180 11
-87 -1 -149 -3 -138 -6z"/>
<path d="M1661 1091 c-8 -5 -11 -16 -8 -25 5 -14 11 -15 27 -6 21 11 23 31 4
37 -5 1 -15 -1 -23 -6z"/>
<path d="M415 1020 c3 -5 14 -10 24 -10 9 0 21 -4 27 -9 15 -15 314 -19 314
-5 0 7 -14 17 -31 23 -41 14 -343 15 -334 1z"/>
<path d="M1688 1013 c-22 -5 -23 -22 -3 -29 23 -9 45 3 39 21 -6 16 -7 16 -36
8z"/>
<path d="M400 938 c0 -5 10 -8 23 -8 13 0 27 -4 33 -9 5 -5 78 -11 162 -13
134 -4 152 -2 150 11 -3 14 -31 17 -186 21 -100 3 -182 2 -182 -2z"/>
<path d="M1697 934 c-16 -16 -6 -35 16 -32 12 2 22 10 22 18 0 16 -26 25 -38
14z"/>
<path d="M405 850 c3 -5 15 -10 25 -10 10 0 22 -4 25 -10 7 -11 233 -14 284
-4 17 4 31 13 31 20 0 11 -35 14 -186 14 -121 0 -183 -3 -179 -10z"/>
<path d="M1690 846 c0 -16 27 -29 41 -20 19 11 9 34 -16 34 -15 0 -25 -6 -25
-14z"/>
<path d="M520 153 c-51 -19 -69 -93 -32 -126 23 -21 81 -22 110 -1 28 19 31
83 5 107 -21 18 -62 28 -83 20z m58 -25 c7 -7 12 -28 12 -48 0 -20 -5 -41 -12
-48 -18 -18 -56 -14 -68 7 -14 26 -13 74 2 89 15 15 51 15 66 0z"/>
<path d="M1470 153 c-51 -19 -69 -93 -32 -126 26 -24 87 -22 112 3 52 52 -11
149 -80 123z m64 -45 c14 -41 -3 -82 -35 -86 -33 -4 -53 21 -52 63 1 47 10 57
46 53 24 -2 34 -10 41 -30z"/>
<path d="M1894 150 c-45 -18 -40 -65 10 -78 21 -6 31 -14 31 -28 0 -26 -44
-32 -62 -8 -12 17 -13 16 -13 -4 0 -19 6 -22 39 -22 73 0 90 70 21 85 -21 5
-30 13 -30 26 0 22 38 27 58 7 9 -9 12 -8 12 5 0 9 -4 17 -9 17 -5 0 -15 2
-23 4 -7 3 -22 1 -34 -4z"/>
<path d="M16 140 c6 -6 7 -35 4 -70 -5 -50 -3 -60 10 -60 12 0 14 11 12 52
l-2 53 29 -55 29 -54 28 54 29 55 3 -44 c2 -28 -1 -47 -10 -52 -9 -6 -3 -9 17
-9 l30 0 0 70 c0 65 -2 70 -21 70 -16 0 -27 -13 -44 -52 l-23 -53 -23 53 c-20
44 -28 52 -51 52 -18 0 -24 -3 -17 -10z"/>
<path d="M225 80 l0 -70 30 0 c20 0 26 3 17 9 -10 6 -13 26 -10 70 3 56 1 61
-17 61 -18 0 -20 -7 -20 -70z"/>
<path d="M305 80 c0 -63 2 -70 20 -70 15 0 16 3 7 12 -13 13 -17 88 -4 88 4 0
25 -22 47 -50 22 -27 45 -49 52 -50 7 0 13 25 15 70 3 65 1 70 -17 69 -11 0
-14 -3 -7 -6 7 -3 12 -23 12 -51 l-1 -47 -47 53 c-65 72 -77 70 -77 -18z"/>
<path d="M630 133 c0 -13 3 -14 12 -5 7 7 18 12 26 12 11 0 13 -15 10 -65 l-3
-65 29 0 c23 0 26 2 17 14 -7 8 -11 36 -9 63 3 46 4 48 31 46 15 -1 27 2 27 8
0 5 -31 9 -70 9 -59 0 -70 -3 -70 -17z"/>
<path d="M785 80 l0 -70 46 0 c32 0 49 5 53 15 3 8 1 15 -4 15 -6 0 -10 -4
-10 -10 0 -5 -11 -10 -25 -10 -21 0 -25 5 -25 30 0 23 5 30 19 30 11 0 22 -6
24 -12 3 -7 5 1 5 17 0 17 -2 24 -5 18 -2 -7 -13 -13 -24 -13 -14 0 -19 7 -19
26 0 23 3 26 30 22 17 -3 30 -1 30 4 0 4 -21 8 -47 8 l-48 0 0 -70z"/>
<path d="M918 89 c3 -44 0 -64 -10 -70 -9 -6 -3 -9 17 -9 l30 0 -3 65 c-3 55
-1 65 12 65 25 0 32 -31 11 -46 -17 -12 -17 -14 2 -46 11 -19 29 -34 42 -36
l23 -4 -27 36 c-25 33 -26 37 -10 52 29 30 15 49 -40 52 l-50 3 3 -62z"/>
<path d="M1058 143 c7 -3 12 -26 12 -63 0 -37 -5 -60 -12 -63 -7 -3 3 -6 22
-6 26 -1 31 2 22 11 -16 16 -16 115 1 121 6 3 -4 5 -23 5 -19 0 -29 -2 -22 -5z"/>
<path d="M1135 80 l0 -71 49 3 c33 2 51 8 54 18 4 12 2 13 -9 3 -7 -7 -23 -13
-36 -13 -19 0 -23 5 -23 30 0 23 5 30 19 30 11 0 22 -6 24 -12 3 -7 5 1 5 17
0 17 -2 24 -5 18 -2 -7 -13 -13 -24 -13 -14 0 -19 7 -19 26 0 23 3 26 30 22
17 -3 30 -1 30 4 0 4 -21 8 -47 8 l-48 0 0 -70z"/>
<path d="M1306 139 c4 -6 7 -33 7 -59 0 -26 -3 -53 -7 -59 -5 -7 4 -11 26 -10
18 0 27 3 21 6 -7 2 -13 18 -13 34 0 22 5 29 19 29 11 0 22 -6 24 -12 3 -7 6
-3 6 8 1 17 -4 20 -24 16 -22 -4 -25 -1 -25 22 0 21 5 26 24 26 13 0 27 -6 29
-12 3 -8 6 -6 6 5 1 14 -8 17 -50 17 -34 0 -48 -3 -43 -11z"/>
<path d="M1595 80 l0 -70 30 1 c17 0 24 3 18 6 -9 3 -13 26 -13 64 0 52 2 59
20 59 15 0 20 -7 20 -26 0 -16 5 -24 13 -21 6 2 12 15 12 28 0 22 -5 24 -50
27 l-50 3 0 -71z"/>
<path d="M1745 80 l0 -70 48 0 c38 0 47 3 46 18 0 10 -3 12 -6 5 -2 -7 -16
-13 -29 -13 -20 0 -24 5 -24 30 0 23 5 30 19 30 11 0 22 -6 24 -12 3 -7 5 1 5
17 0 17 -2 24 -5 18 -2 -7 -13 -13 -24 -13 -14 0 -19 7 -19 25 0 20 5 25 24
25 13 0 27 -6 29 -12 3 -8 6 -6 6 5 1 14 -8 17 -46 17 l-48 0 0 -70z"/>
<path d="M1981 133 c0 -11 3 -13 6 -5 2 6 14 12 25 12 18 0 19 -6 16 -65 l-3
-65 30 1 c17 0 24 3 18 6 -9 3 -13 26 -13 64 0 51 2 59 19 59 11 0 22 -6 24
-12 3 -8 6 -6 6 5 1 14 -8 17 -64 17 -56 0 -65 -3 -64 -17z"/>
<path d="M1640 86 c0 -18 48 -76 63 -76 15 0 15 4 -6 38 -21 32 -57 56 -57 38z"/>
</g>
</svg>
