<?xml version="1.0" standalone="no"?>
<!DOCTYPE svg PUBLIC "-//W3C//DTD SVG 20010904//EN"
 "http://www.w3.org/TR/2001/REC-SVG-20010904/DTD/svg10.dtd">
<svg version="1.0" xmlns="http://www.w3.org/2000/svg"
 width="130.000000pt" height="153.000000pt" viewBox="0 0 130.000000 153.000000"
 preserveAspectRatio="xMidYMid meet">

<g transform="translate(0.000000,153.000000) scale(0.100000,-0.100000)"
fill="#08316B" stroke="none">
<path d="M470 1313 c0 -12 -3 -14 -11 -6 -14 14 -49 4 -49 -14 0 -9 -6 -13
-14 -10 -8 3 -20 0 -26 -8 -13 -15 -2 -42 25 -65 11 -9 14 -22 10 -42 -7 -28
-6 -28 40 -28 25 0 62 -7 82 -15 45 -19 43 -19 43 10 0 18 9 29 33 41 17 9 35
21 39 27 9 15 -2 37 -20 37 -8 0 -12 3 -9 7 9 9 -23 43 -40 43 -8 0 -12 4 -9
9 6 10 -45 31 -75 31 -11 0 -19 -7 -19 -17z"/>
<path d="M385 1111 c-11 -19 117 -81 166 -81 13 0 15 6 10 32 -5 24 -14 34
-41 44 -42 15 -126 18 -135 5z"/>
<path d="M380 1055 c0 -25 39 -75 58 -75 17 0 0 65 -22 82 -29 24 -36 22 -36
-7z"/>
<path d="M314 966 c-46 -33 -81 -165 -68 -264 5 -43 13 -63 34 -82 37 -34 57
-130 49 -230 -13 -157 -11 -198 11 -210 28 -15 59 -4 70 24 4 13 12 80 15 149
7 112 5 138 -16 236 -17 78 -28 111 -40 114 -10 3 -25 37 -42 100 -15 53 -27
101 -27 107 0 5 11 17 25 26 23 15 27 15 49 1 14 -10 26 -30 30 -51 4 -20 18
-49 32 -66 25 -29 28 -30 114 -30 91 0 119 12 106 45 -4 12 -24 15 -88 16
l-83 0 -45 62 c-49 68 -84 82 -126 53z"/>
<path d="M324 917 c-5 -15 30 -161 45 -185 13 -22 183 -71 204 -60 37 19 14
42 -65 68 -42 14 -80 29 -85 33 -4 5 -17 41 -28 80 -17 59 -25 73 -43 75 -13
2 -25 -3 -28 -11z"/>
<path d="M693 776 c-60 -29 -79 -55 -53 -71 19 -12 136 86 118 99 -2 2 -31
-11 -65 -28z"/>
<path d="M750 684 c0 -12 10 -14 52 -12 74 4 77 28 4 28 -44 0 -56 -3 -56 -16z"/>
<path d="M690 679 c0 -5 5 -7 10 -4 6 3 10 8 10 11 0 2 -4 4 -10 4 -5 0 -10
-5 -10 -11z"/>
<path d="M658 673 c7 -3 16 -2 19 1 4 3 -2 6 -13 5 -11 0 -14 -3 -6 -6z"/>
<path d="M555 633 l-40 -4 5 -227 5 -227 263 -3 262 -2 0 219 c0 121 3 226 6
235 6 14 -18 16 -227 14 -129 -1 -252 -3 -274 -5z"/>
</g>
</svg>
