<?xml version="1.0" standalone="no"?>
<!DOCTYPE svg PUBLIC "-//W3C//DTD SVG 20010904//EN"
 "http://www.w3.org/TR/2001/REC-SVG-20010904/DTD/svg10.dtd">
<svg version="1.0" xmlns="http://www.w3.org/2000/svg"
 width="163.000000pt" height="147.000000pt" viewBox="0 0 163.000000 147.000000"
 preserveAspectRatio="xMidYMid meet">

<g transform="translate(0.000000,147.000000) scale(0.100000,-0.100000)"
fill="#08316B" stroke="none">
<path d="M765 1266 c-101 -44 -123 -182 -41 -254 78 -69 193 -45 241 49 63
120 -74 260 -200 205z m49 -31 c3 -8 10 -15 16 -15 5 0 10 7 10 15 0 18 14 19
41 4 14 -7 18 -16 13 -31 -5 -17 -3 -20 11 -14 38 14 60 -35 28 -60 -17 -12
-17 -13 0 -19 36 -15 14 -63 -26 -56 -15 2 -17 -2 -12 -18 4 -14 0 -23 -14
-30 -27 -15 -41 -14 -41 4 0 20 -10 19 -25 -2 -19 -26 -66 -3 -58 28 5 18 3
20 -16 14 -17 -5 -23 -1 -31 20 -13 34 -13 35 5 35 20 0 19 17 0 28 -13 7 -14
14 -5 36 8 22 14 26 31 21 18 -6 20 -4 15 13 -11 32 46 58 58 27z"/>
<path d="M817 1184 c-4 -4 -7 -15 -7 -25 0 -9 -10 -19 -22 -23 -30 -7 -10 -29
23 -24 18 2 25 10 27 32 4 29 -9 52 -21 40z"/>
<path d="M595 1101 c-35 -21 -125 -115 -125 -131 0 -19 14 -10 59 38 25 27 59
57 75 69 39 27 31 49 -9 24z"/>
<path d="M1020 1106 c0 -7 18 -25 39 -39 22 -15 52 -42 68 -62 24 -30 53 -46
53 -29 0 15 -58 78 -100 109 -53 39 -60 41 -60 21z"/>
<path d="M1124 915 c-4 -8 -18 -15 -34 -15 -53 0 -60 -22 -60 -178 0 -114 3
-143 16 -156 12 -13 40 -16 142 -16 178 0 172 -6 172 171 0 126 -2 141 -20
159 -11 11 -31 20 -44 20 -13 0 -29 7 -36 15 -8 10 -31 15 -72 15 -43 0 -60
-4 -64 -15z m124 -32 c-3 -14 -14 -18 -53 -18 -39 0 -50 4 -53 18 -3 14 5 17
53 17 48 0 56 -3 53 -17z m-124 -28 c8 -22 131 -21 144 1 5 9 18 14 33 12 l24
-3 0 -140 0 -140 -132 -3 -133 -3 0 146 0 145 29 0 c16 0 31 -6 35 -15z"/>
<path d="M1127 794 c-18 -18 -1 -24 69 -24 56 0 75 3 72 13 -5 13 -129 23
-141 11z"/>
<path d="M1120 715 c0 -13 12 -15 72 -13 46 2 73 7 76 16 3 9 -16 12 -72 12
-62 0 -76 -3 -76 -15z"/>
<path d="M1122 648 c6 -18 140 -18 145 0 4 9 -15 12 -72 12 -57 0 -76 -3 -73
-12z"/>
<path d="M430 905 c-7 -8 -22 -15 -34 -15 -26 0 -66 -39 -66 -64 0 -10 -9 -30
-21 -44 -22 -28 -19 -63 6 -89 8 -8 15 -25 15 -37 0 -27 39 -66 66 -66 10 0
28 -7 38 -15 26 -19 70 -19 86 0 7 8 22 15 34 15 32 0 66 28 66 54 0 13 9 35
20 49 11 14 20 35 20 47 0 12 -9 33 -20 47 -11 14 -20 36 -20 48 0 26 -29 55
-56 55 -11 0 -29 7 -40 15 -25 19 -78 19 -94 0z m76 -24 c5 -5 24 -13 43 -18
30 -8 36 -15 48 -56 7 -26 18 -47 23 -47 6 0 10 -9 10 -20 0 -11 -4 -20 -10
-20 -5 0 -16 -21 -23 -47 -8 -27 -20 -48 -28 -49 -29 -2 -69 -16 -69 -25 0 -5
-11 -9 -25 -9 -14 0 -25 4 -25 9 0 8 -38 23 -64 25 -10 1 -19 17 -36 64 -7 17
-16 32 -21 32 -5 0 -9 9 -9 20 0 11 4 20 10 20 5 0 16 21 23 47 12 41 18 48
48 56 19 5 38 13 44 18 5 5 18 9 30 9 12 0 25 -4 31 -9z"/>
<path d="M435 826 c-54 -23 -71 -93 -34 -140 30 -38 64 -49 105 -36 42 14 64
44 64 88 0 46 -16 71 -55 88 -41 17 -42 17 -80 0z m86 -34 c47 -39 16 -122
-47 -122 -33 0 -64 34 -64 70 0 60 64 90 111 52z"/>
<path d="M802 840 c-107 -25 -153 -171 -91 -291 29 -57 20 -83 -37 -109 -26
-11 -52 -20 -60 -20 -7 0 -36 23 -64 50 -49 48 -70 60 -70 41 0 -4 23 -31 52
-60 48 -48 50 -52 30 -58 -22 -5 -42 -53 -58 -139 l-6 -34 336 0 c383 0 350
-10 317 94 -16 54 -35 79 -64 89 -6 2 11 25 38 51 66 64 42 74 -25 12 -27 -25
-53 -46 -57 -46 -4 1 -28 11 -53 23 -54 26 -60 48 -30 107 31 60 37 130 16
184 -17 45 -75 106 -101 106 -7 0 -19 2 -27 4 -7 2 -28 0 -46 -4z m86 -36 c66
-39 90 -133 58 -219 -19 -49 -76 -105 -107 -105 -93 0 -163 169 -111 268 35
65 105 89 160 56z m-102 -339 c36 -19 61 -19 97 0 27 14 29 13 34 -5 3 -13 33
-31 94 -56 49 -20 93 -42 97 -48 8 -10 32 -86 32 -100 0 -3 -137 -6 -305 -6
l-305 0 6 28 c18 76 27 85 115 123 54 23 88 43 94 57 5 12 10 22 11 22 1 0 15
-7 30 -15z"/>
</g>
</svg>
