<?xml version="1.0" standalone="no"?>
<!DOCTYPE svg PUBLIC "-//W3C//DTD SVG 20010904//EN"
 "http://www.w3.org/TR/2001/REC-SVG-20010904/DTD/svg10.dtd">
<svg version="1.0" xmlns="http://www.w3.org/2000/svg"
 width="125.000000pt" height="117.000000pt" viewBox="0 0 125.000000 117.000000"
 preserveAspectRatio="xMidYMid meet">

<g transform="translate(0.000000,117.000000) scale(0.100000,-0.100000)"
fill="#08316B" stroke="none">
<path d="M610 974 c-21 -36 -116 -74 -155 -61 -24 8 -31 6 -46 -12 -15 -18
-16 -27 -7 -46 8 -19 6 -32 -10 -67 -11 -24 -22 -51 -26 -61 -3 -9 -17 -22
-31 -27 -35 -13 -35 -62 1 -78 14 -7 30 -26 36 -43 7 -20 15 -28 25 -25 8 3
16 6 19 6 2 0 -1 12 -6 26 -14 35 -13 108 2 156 16 53 88 132 140 153 86 35
210 14 276 -48 57 -52 90 -161 74 -235 -9 -37 -8 -42 8 -42 10 0 21 8 25 18 3
11 17 24 30 30 20 9 25 19 25 46 0 27 -5 35 -24 40 -28 7 -58 79 -60 143 -1
53 -25 81 -57 67 -33 -15 -148 32 -155 63 -9 34 -64 32 -84 -3z"/>
<path d="M603 533 c-29 -31 -53 -63 -53 -70 0 -26 36 -12 75 27 21 22 48 40
60 40 11 0 69 -34 128 -76 105 -73 109 -75 150 -67 l42 9 3 67 3 67 -91 0
c-79 0 -99 4 -157 30 -36 17 -75 30 -86 30 -13 0 -43 -23 -74 -57z"/>
<path d="M464 545 c-53 -27 -81 -35 -121 -35 l-53 0 0 -64 c0 -59 2 -65 23
-71 12 -3 39 -13 60 -22 33 -15 39 -15 50 -1 19 23 41 27 73 13 16 -7 42 -16
57 -19 16 -4 32 -17 39 -31 6 -14 16 -25 23 -25 6 0 23 -12 38 -28 14 -15 33
-33 41 -40 9 -7 16 -23 16 -36 0 -14 10 -30 25 -40 26 -17 28 -15 25 22 -2 22
1 23 30 17 31 -7 32 -6 25 23 -7 34 8 50 30 32 15 -13 35 -6 35 12 0 6 -7 16
-17 23 -21 16 -9 35 23 35 13 0 24 6 24 13 0 14 -191 157 -219 164 -9 2 -33
-14 -56 -36 -42 -44 -81 -53 -109 -25 -27 26 -19 61 25 109 l42 45 -30 0 c-16
0 -60 -16 -99 -35z"/>
<path d="M1050 465 c0 -88 1 -95 20 -95 19 0 20 7 20 95 0 88 -1 95 -20 95
-19 0 -20 -7 -20 -95z"/>
<path d="M220 451 c0 -95 1 -101 20 -101 20 0 21 5 18 97 -3 84 -6 98 -20 101
-16 3 -18 -7 -18 -97z"/>
<path d="M440 308 c-11 -18 -20 -39 -20 -46 0 -24 33 -8 52 24 16 27 16 33 4
44 -13 10 -19 6 -36 -22z"/>
<path d="M511 274 c-24 -41 -27 -64 -7 -64 18 0 59 68 52 86 -9 23 -23 16 -45
-22z"/>
<path d="M567 219 c-17 -31 -15 -49 6 -49 13 0 47 50 47 69 0 23 -36 9 -53
-20z"/>
<path d="M636 178 c-17 -24 -21 -48 -8 -48 8 0 42 52 42 64 0 14 -20 4 -34
-16z"/>
</g>
</svg>
