<?xml version="1.0" standalone="no"?>
<!DOCTYPE svg PUBLIC "-//W3C//DTD SVG 20010904//EN"
 "http://www.w3.org/TR/2001/REC-SVG-20010904/DTD/svg10.dtd">
<svg version="1.0" xmlns="http://www.w3.org/2000/svg"
 width="136.000000pt" height="145.000000pt" viewBox="0 0 136.000000 145.000000"
 preserveAspectRatio="xMidYMid meet">

<g transform="translate(0.000000,145.000000) scale(0.100000,-0.100000)"
fill="#08316B" stroke="none">
<path d="M618 1290 c-10 -6 -14 -18 -11 -30 9 -33 -5 -66 -32 -78 -30 -14 -33
-48 -5 -57 28 -9 53 -50 45 -74 -9 -28 23 -44 50 -25 10 8 28 14 40 14 12 0
30 -6 40 -14 29 -21 55 -3 55 38 0 32 24 66 48 66 7 0 12 11 12 25 0 15 -6 25
-14 25 -26 0 -57 51 -51 81 7 33 -19 47 -45 24 -21 -19 -74 -19 -90 0 -14 17
-19 18 -42 5z m122 -65 c29 -15 47 -53 41 -85 -6 -31 -44 -60 -78 -60 -84 0
-106 119 -28 150 28 12 33 12 65 -5z"/>
<path d="M668 940 c-44 -26 -22 -134 30 -147 54 -13 99 98 56 141 -17 18 -60
21 -86 6z"/>
<path d="M382 919 c-48 -18 -22 -119 30 -119 11 0 25 13 35 35 28 58 -8 105
-65 84z"/>
<path d="M972 914 c-39 -27 -18 -114 28 -114 46 0 67 87 28 114 -12 9 -25 16
-28 16 -3 0 -16 -7 -28 -16z"/>
<path d="M401 763 c-1 -30 -18 -38 -31 -13 -13 25 -32 26 -53 2 -23 -25 -24
-197 -3 -221 10 -11 17 -58 23 -146 7 -107 11 -130 24 -133 17 -3 17 -5 35
182 9 92 20 66 29 -67 5 -80 11 -110 21 -114 8 -3 17 -4 19 -2 2 2 7 64 11
136 5 93 11 136 20 144 10 8 14 40 14 115 0 101 -1 105 -25 116 -21 9 -27 8
-44 -13 -15 -19 -21 -21 -24 -9 -3 8 -8 22 -10 30 -4 10 -6 7 -6 -7z"/>
<path d="M912 758 c-18 -18 -16 -208 3 -244 10 -20 15 -60 15 -124 0 -108 6
-140 26 -140 17 0 21 21 29 145 5 93 9 114 19 104 3 -2 8 -58 13 -124 7 -98
11 -120 24 -123 23 -4 29 26 29 143 0 74 4 106 15 122 23 33 17 231 -7 247
-13 8 -22 5 -43 -14 -20 -19 -25 -21 -25 -7 0 22 -16 22 -24 0 -6 -14 -8 -14
-22 5 -17 25 -34 28 -52 10z"/>
<path d="M603 742 c-20 -16 -22 -26 -24 -150 -3 -117 -1 -133 15 -145 16 -11
19 -33 23 -148 6 -184 8 -199 37 -199 23 0 24 4 30 98 10 152 17 212 26 212 7
0 10 -26 26 -228 6 -78 7 -82 30 -82 13 0 24 6 25 13 0 6 4 80 8 164 6 122 11
156 24 171 14 15 17 40 17 144 0 117 -1 126 -23 146 -30 28 -41 28 -61 -3 -21
-32 -32 -32 -41 3 l-8 27 -6 -24 c-9 -34 -25 -36 -41 -6 -16 29 -27 31 -57 7z"/>
</g>
</svg>
