<?xml version="1.0" standalone="no"?>
<!DOCTYPE svg PUBLIC "-//W3C//DTD SVG 20010904//EN"
 "http://www.w3.org/TR/2001/REC-SVG-20010904/DTD/svg10.dtd">
<svg version="1.0" xmlns="http://www.w3.org/2000/svg"
 width="198.000000pt" height="136.000000pt" viewBox="0 0 198.000000 136.000000"
 preserveAspectRatio="xMidYMid meet">

<g transform="translate(0.000000,136.000000) scale(0.100000,-0.100000)"
fill="#000000" stroke="none">
<path d="M1055 1235 c-5 -2 -36 -11 -68 -20 -48 -13 -60 -21 -73 -49 -15 -30
-15 -36 0 -64 9 -17 16 -50 16 -74 0 -24 9 -61 19 -83 17 -39 17 -42 -1 -99
-22 -67 -19 -82 18 -96 16 -7 24 -16 21 -25 -3 -7 -11 -33 -17 -57 -12 -42
-12 -43 27 -75 21 -18 40 -33 43 -33 3 0 22 15 43 33 l38 32 -13 54 c-11 49
-11 55 6 65 50 30 49 27 26 97 -21 62 -21 68 -6 97 9 17 16 53 16 80 0 27 6
57 15 68 49 64 -33 176 -110 149z m73 -58 c8 -6 12 -25 10 -46 -4 -48 -43 -70
-86 -48 -17 8 -37 11 -49 6 -42 -15 -83 42 -50 70 20 16 119 40 142 34 11 -3
26 -10 33 -16z m-15 -144 c15 -9 6 -53 -16 -79 -18 -20 -32 -27 -58 -26 -44 1
-69 31 -69 84 l0 40 68 -7 c37 -4 70 -9 75 -12z m-26 -160 c2 -6 -5 -14 -17
-18 -30 -10 -70 2 -70 21 0 12 10 14 42 12 23 -2 43 -8 45 -15z m-73 -57 c27
-11 36 -11 57 0 32 18 56 17 63 -1 6 -17 -59 -55 -93 -55 -28 0 -91 31 -91 45
0 28 17 31 64 11z m51 -137 c5 -31 3 -45 -8 -57 -13 -13 -19 -13 -31 -2 -28
22 -16 100 14 100 14 0 20 -11 25 -41z"/>
<path d="M755 970 c-11 -5 -32 -9 -46 -9 -60 -2 -100 -87 -64 -135 9 -11 15
-41 15 -69 0 -28 7 -61 17 -78 15 -26 15 -30 1 -46 -9 -10 -23 -32 -31 -49
-13 -26 -28 -35 -99 -57 l-83 -27 -63 -116 c-35 -64 -61 -122 -58 -130 4 -12
49 -14 251 -14 238 0 245 1 245 20 0 19 -7 20 -129 20 -137 0 -141 2 -141 51
0 33 -28 22 -32 -13 l-3 -33 -67 -3 c-48 -2 -68 1 -68 9 0 7 21 50 47 95 l46
83 63 21 c77 25 102 25 133 1 22 -17 23 -21 12 -51 -18 -54 -14 -76 23 -104
19 -14 38 -26 43 -26 4 1 24 14 43 30 34 30 34 30 22 75 -17 66 -16 71 25 88
27 10 46 12 71 5 26 -7 37 -6 43 4 6 9 -2 17 -31 26 -22 8 -42 22 -45 33 -4
10 -17 32 -31 48 l-25 30 21 38 c11 21 20 56 20 79 0 23 6 57 14 75 19 45 10
84 -26 114 -30 26 -75 32 -113 15z m96 -51 c40 -40 1 -106 -56 -94 -16 4 -46
7 -65 6 -42 0 -60 14 -60 45 0 27 10 35 65 51 61 17 93 15 116 -8z m-48 -136
c32 -5 37 -9 37 -33 0 -39 -35 -80 -70 -80 -40 0 -70 29 -77 74 -7 44 7 60 47
51 14 -3 42 -8 63 -12z m7 -163 c0 -18 -38 -30 -64 -20 -40 15 -31 30 19 30
25 0 45 -4 45 -10z m-77 -55 c33 -14 40 -13 72 2 31 15 37 15 45 3 15 -23 13
-24 -34 -47 -47 -23 -89 -19 -130 12 -16 12 -17 17 -6 30 15 18 10 18 53 0z
m55 -137 c9 -35 8 -46 -4 -58 -22 -22 -49 0 -48 39 4 73 36 84 52 19z"/>
<path d="M1300 970 c-14 -4 -37 -11 -52 -14 -56 -12 -79 -63 -55 -118 9 -18
18 -55 20 -83 2 -27 10 -64 17 -81 12 -28 11 -34 -3 -49 -10 -9 -24 -30 -32
-46 -12 -23 -29 -32 -88 -50 -39 -11 -77 -25 -83 -30 -13 -11 -134 -226 -134
-239 0 -4 7 -11 16 -14 9 -3 197 -6 418 -6 292 0 405 3 414 12 11 11 3 29 -90
195 -29 52 -31 53 -114 79 -46 14 -84 29 -84 33 0 4 -13 28 -29 52 -28 40 -29
45 -14 61 10 11 18 42 21 76 2 31 11 72 19 91 12 28 13 41 4 72 -18 59 -79 83
-151 59z m100 -50 c11 -11 20 -29 20 -40 0 -42 -76 -81 -96 -49 -4 6 -19 9
-36 5 -39 -8 -68 9 -68 39 0 28 10 36 65 51 62 18 93 16 115 -6z m-42 -137
c28 -4 32 -9 32 -36 0 -38 -35 -77 -69 -77 -38 0 -71 37 -71 80 0 46 7 53 45
45 16 -3 45 -8 63 -12z m2 -163 c0 -18 -38 -30 -64 -20 -40 15 -31 30 19 30
25 0 45 -4 45 -10z m-76 -55 c32 -14 40 -14 72 0 39 16 54 13 54 -11 0 -17
-58 -44 -95 -44 -52 0 -102 40 -78 63 8 9 5 9 47 -8z m-49 -67 c28 -12 31 -31
14 -88 -11 -36 -10 -39 22 -69 19 -17 38 -31 43 -31 4 0 25 14 46 30 l38 30
-14 53 c-7 28 -14 53 -14 54 0 6 61 33 76 33 9 0 47 -9 83 -20 l66 -20 48 -89
c26 -49 47 -92 47 -95 0 -3 -31 -6 -69 -6 l-70 0 -3 32 c-2 22 -9 34 -20 36
-15 3 -18 -4 -18 -32 l0 -36 -190 0 -190 0 0 35 c0 28 -4 35 -20 35 -16 0 -20
-7 -20 -35 l0 -35 -70 0 c-38 0 -70 3 -70 6 0 3 21 46 48 95 l47 89 60 19 c72
23 96 25 130 9z m107 -72 c12 -55 -21 -88 -51 -52 -10 11 -9 24 0 56 16 52 40
50 51 -4z"/>
</g>
</svg>
