<?xml version="1.0" standalone="no"?>
<!DOCTYPE svg PUBLIC "-//W3C//DTD SVG 20010904//EN"
 "http://www.w3.org/TR/2001/REC-SVG-20010904/DTD/svg10.dtd">
<svg version="1.0" xmlns="http://www.w3.org/2000/svg"
 width="285.000000pt" height="236.000000pt" viewBox="0 0 285.000000 236.000000"
 preserveAspectRatio="xMidYMid meet">

<g transform="translate(0.000000,236.000000) scale(0.100000,-0.100000)"
fill="#000000" stroke="none">
<path d="M255 2168 c-3 -13 -4 -120 -3 -238 l3 -215 145 -1 145 0 -135 5 -135
6 -3 113 -3 112 128 1 c81 0 121 4 108 9 -11 5 -68 9 -127 9 l-108 1 0 100 0
100 130 0 c80 0 130 4 130 10 0 6 -52 10 -135 10 -131 0 -135 -1 -140 -22z"/>
<path d="M652 2010 c-1 -161 1 -190 17 -226 27 -60 78 -88 161 -88 83 0 134
28 161 88 16 36 18 65 17 226 l-2 185 -5 -185 c-5 -161 -9 -189 -26 -219 -35
-59 -67 -76 -145 -76 -78 0 -110 17 -145 76 -17 30 -21 58 -26 219 l-5 185 -2
-185z"/>
<path d="M1150 1949 c0 -157 3 -238 10 -234 6 4 10 55 10 121 l0 114 54 0 53
0 73 -121 c39 -66 74 -118 77 -115 3 3 -24 56 -61 117 -37 61 -65 113 -64 114
2 1 22 7 45 13 57 17 83 52 83 112 0 90 -49 120 -197 120 l-83 0 0 -241z m233
193 c32 -31 41 -65 27 -108 -16 -47 -56 -65 -157 -72 l-83 -5 0 108 0 107 94
-4 c83 -3 98 -6 119 -26z"/>
<path d="M1550 1950 l0 -240 148 2 147 2 -137 3 -138 4 0 114 0 115 123 1 c77
0 115 4 102 9 -11 5 -66 9 -122 9 l-103 1 0 100 0 100 130 0 c80 0 130 4 130
10 0 6 -53 10 -140 10 l-140 0 0 -240z"/>
<path d="M1950 1952 c0 -155 4 -242 10 -242 6 0 10 50 11 128 l0 127 124 -130
c68 -71 127 -126 132 -122 4 4 -48 63 -116 131 l-122 123 113 103 c62 57 115
108 116 112 10 22 -21 -1 -127 -99 l-116 -108 -3 100 c-1 55 -7 104 -12 109
-7 7 -10 -77 -10 -232z"/>
<path d="M2372 1954 c-57 -130 -100 -239 -97 -242 7 -7 8 -6 37 63 l25 60 144
0 143 0 25 -62 c13 -35 28 -63 33 -63 4 0 8 3 7 8 -2 21 -196 466 -205 469 -5
2 -56 -103 -112 -233z m177 63 c34 -81 61 -149 61 -152 0 -3 -58 -5 -130 -5
-71 0 -130 1 -130 3 0 2 25 61 56 133 31 71 60 140 65 153 5 13 11 22 13 20 2
-2 32 -70 65 -152z"/>
<path d="M200 865 l0 -585 563 -2 562 -3 1 -65 1 -65 652 -3 651 -2 0 535 0
535 -510 0 -510 0 0 120 0 120 -705 0 -705 0 0 -585z m278 173 c3 -15 -4 -18
-42 -18 -39 0 -46 -3 -46 -20 0 -17 7 -20 40 -20 29 0 40 -4 40 -15 0 -11 -11
-15 -40 -15 l-40 0 0 -40 c0 -33 -3 -40 -20 -40 -19 0 -20 7 -20 95 l0 96 62
-3 c50 -2 63 -6 66 -20z m778 11 c10 -17 -13 -36 -27 -22 -12 12 -4 33 11 33
5 0 12 -5 16 -11z m-79 -16 c4 -10 14 -23 22 -30 14 -10 14 -12 -1 -18 -13 -5
-18 -18 -18 -42 0 -23 7 -41 18 -49 16 -12 16 -13 -2 -20 -31 -12 -51 9 -54
57 -2 24 -8 46 -13 50 -11 6 18 69 32 69 5 0 13 -8 16 -17z m-567 -43 c43 -43
14 -120 -44 -120 -41 0 -69 29 -69 72 0 59 72 89 113 48z m76 9 c4 -8 9 -8 17
0 16 16 37 13 37 -4 0 -9 -11 -20 -25 -25 -22 -8 -25 -16 -25 -55 0 -38 -3
-45 -20 -45 -18 0 -20 7 -20 63 0 35 3 67 7 70 9 10 21 8 29 -4z m99 1 c4 -6
13 -5 25 3 16 9 24 9 41 -1 16 -10 24 -10 35 -1 21 17 63 3 70 -25 10 -43 0
-101 -18 -104 -15 -3 -18 4 -18 47 0 27 -5 53 -12 57 -17 11 -38 -26 -38 -68
0 -27 -4 -38 -15 -38 -11 0 -15 11 -15 39 0 48 -8 71 -25 71 -17 0 -25 -23
-25 -72 0 -32 -3 -39 -17 -36 -29 5 -32 138 -4 138 5 0 13 -4 16 -10z m303 -2
c6 -7 12 -38 13 -68 l3 -55 -51 -3 c-54 -3 -78 12 -71 45 3 15 18 23 77 40 11
3 12 6 2 16 -9 9 -16 9 -31 -1 -26 -16 -40 -15 -40 3 0 30 77 48 98 23z m170
-61 c3 -62 1 -67 -18 -67 -18 0 -20 6 -20 63 0 35 3 67 7 71 17 17 28 -6 31
-67z m142 53 c42 -42 11 -120 -47 -120 -34 0 -46 8 -62 37 -17 33 -14 51 14
78 29 30 68 32 95 5z m76 9 c4 -8 9 -8 17 0 16 16 43 14 61 -5 11 -10 16 -34
16 -70 0 -47 -2 -54 -20 -54 -17 0 -20 7 -20 50 0 37 -4 52 -16 57 -22 8 -34
-14 -34 -65 0 -36 -3 -43 -17 -40 -29 5 -32 138 -4 138 5 0 13 -5 17 -11z m66
-386 c10 -9 18 -22 18 -30 0 -18 -30 -16 -52 4 -15 13 -23 14 -43 5 -20 -9
-25 -19 -25 -50 0 -21 5 -43 12 -50 19 -19 56 -14 68 8 14 26 40 26 40 1 0
-23 -45 -61 -72 -61 -82 0 -121 106 -62 171 22 24 90 25 116 2z m678 4 c0 -19
-10 -27 -26 -20 -21 8 -17 33 6 33 11 0 20 -6 20 -13z m70 -77 c0 -72 -3 -92
-15 -97 -9 -3 -18 -3 -21 -1 -6 7 -13 171 -8 180 3 5 14 8 25 8 17 0 19 -8 19
-90z m-607 39 c30 -16 37 -28 37 -66 0 -84 -105 -100 -133 -20 -8 22 9 68 30
85 21 15 38 15 66 1z m171 -5 c11 -10 16 -34 16 -75 0 -52 -2 -59 -20 -59 -17
0 -20 7 -20 50 0 37 -4 52 -16 57 -22 8 -34 -14 -34 -65 0 -36 -3 -43 -17 -40
-15 3 -19 16 -21 72 -3 68 -3 68 22 64 14 -3 31 -1 38 3 20 13 35 11 52 -7z
m148 -7 c15 -24 8 -29 -34 -23 -41 6 -34 -3 14 -18 54 -17 33 -86 -27 -86 -32
0 -65 21 -65 41 0 12 37 12 45 -1 9 -14 37 -12 33 2 -3 7 -18 16 -36 20 -42
11 -53 45 -21 71 25 20 76 17 91 -6z m133 -2 c14 -13 25 -33 25 -45 0 -17 -6
-20 -45 -20 -25 0 -45 -4 -45 -9 0 -14 25 -20 41 -10 21 13 39 11 39 -6 0 -34
-76 -47 -103 -17 -31 35 -22 107 16 122 35 14 46 12 72 -15z m85 -55 c0 -63
-2 -70 -20 -70 -18 0 -20 7 -20 70 0 63 2 70 20 70 18 0 20 -7 20 -70z"/>
<path d="M540 966 c-7 -10 -10 -26 -6 -42 5 -19 12 -25 29 -22 18 2 22 9 22
38 0 39 -23 52 -45 26z"/>
<path d="M1024 919 c-11 -18 13 -34 31 -19 8 7 15 16 15 21 0 13 -38 11 -46
-2z"/>
<path d="M1331 966 c-21 -25 -10 -61 19 -61 22 0 25 4 25 35 0 38 -23 52 -44
26z"/>
<path d="M1626 535 c-9 -24 -8 -32 9 -49 24 -23 47 -9 43 28 -2 23 -9 32 -24
34 -13 2 -24 -4 -28 -13z"/>
<path d="M2070 540 c0 -5 12 -10 26 -10 14 0 23 4 19 10 -3 6 -15 10 -26 10
-10 0 -19 -4 -19 -10z"/>
</g>
</svg>
